<svg xmlns="http://www.w3.org/2000/svg" viewBox="0 0 285.17 485.71"><defs><style>.cls-1{fill:#edeef2;}.cls-2{fill:#e0e1ec;}.cls-3{fill:#ff3d47;}.cls-4{fill:#f72d40;}.cls-5{fill:#ffd86a;}.cls-6{fill:#f7b92f;}.cls-7{fill:#fccb4f;}.cls-8{fill:#f2aa19;}.cls-9{fill:#fff;}</style></defs><g id="图层_2" data-name="图层 2"><g id="Layer_1" data-name="Layer 1"><path class="cls-1" d="M285.12,317.19c.4,3.52-2.14,8.2-5.32,10a7.18,7.18,0,0,1-.68.34l-84.46,37c-4.47,2-6.39-3.22-3.2-8.72l19.59-34c1.5-2.6,1.5-5.4,0-6.27l-68.36-39L172,225.88l68.36,39a2.77,2.77,0,0,0,2.74-.28,7.85,7.85,0,0,0,2.73-2.88l19.6-34a10.88,10.88,0,0,1,3.79-4c2.56-1.48,5-.81,5.41,2.37Z"/><path class="cls-2" d="M279.8,327.22a7.45,7.45,0,0,1-.68.36l-84.46,37c-4.48,1.95-6.39-3.22-3.21-8.74l19.61-33.94c1.49-2.6,1.49-5.41,0-6.28l-68.36-38.95L172,225.88l64.77,36.91a48.46,48.46,0,0,0-.77,8.58c0,24.89,19.12,45.08,42.68,45.08A39.93,39.93,0,0,0,285,316l.13,1.22C285.53,320.71,283,325.39,279.8,327.22Z"/><path class="cls-3" d="M278.2,1c3.85-2.27,6.42-.54,6,3.44l-10,102.92a12,12,0,0,1-5.38,8.6,3.81,3.81,0,0,1-3.8.36l-19.72-11.25a2.77,2.77,0,0,0-2.74.28,8,8,0,0,0-2.74,2.88L172,225.88l-29.32,50.78L74.76,394.29c-1.5,2.62-1.5,5.42,0,6.28l19.74,11.25c3.19,1.82,1.32,9.19-3.15,12.39L7,484.7c-3.85,2.27-6.41.54-6-3.43l10-102.92a12,12,0,0,1,5.38-8.6,3.79,3.79,0,0,1,3.79-.36l19.74,11.24a2.72,2.72,0,0,0,2.73-.27,7.85,7.85,0,0,0,2.73-2.88l67.92-117.64,29.31-50.78L210.39,91.43c1.51-2.61,1.5-5.42,0-6.29L190.66,73.9c-3.21-1.82-1.33-9.19,3.14-12.39Z"/><path class="cls-4" d="M284.23,4.45l-10,102.92A11.93,11.93,0,0,1,268.9,116a3.77,3.77,0,0,1-3.79.37l-19.73-11.25a2.72,2.72,0,0,0-2.74.29,7.66,7.66,0,0,0-2.73,2.87L172,225.88l-29.32,50.79L74.76,394.3c-1.51,2.61-1.49,5.42,0,6.27L94.5,411.82c3.2,1.83,1.33,9.18-3.14,12.39L7,484.7c-3.84,2.28-6.41.53-6-3.44l10-102.91a11.93,11.93,0,0,1,5.38-8.59,3.79,3.79,0,0,1,3.8-.37l19.73,11.25a2.71,2.71,0,0,0,2.73-.29,7.82,7.82,0,0,0,2.73-2.87l67.91-117.64,29.32-50.77L209.24,93.42a43.28,43.28,0,0,0,30.23-64.65L278.2,1C282.05-1.26,284.62.48,284.23,4.45Z"/><path class="cls-1" d="M74.13,170.1l68.35,39-29.31,50.78-68.36-39a2.77,2.77,0,0,0-2.74.28A7.85,7.85,0,0,0,39.34,224l-19.6,34A10.83,10.83,0,0,1,16,262c-2.57,1.48-5.06.82-5.42-2.36L0,168.53c-.4-3.53,2.15-8.21,5.33-10.05a6.77,6.77,0,0,1,.66-.33l84.47-37c4.48-2,6.38,3.23,3.21,8.73L74.1,163.82C72.6,166.43,72.61,169.24,74.13,170.1Z"/><path class="cls-2" d="M142.48,209.07l-29.32,50.77-68.35-39a2.74,2.74,0,0,0-2.73.27A8.15,8.15,0,0,0,39.34,224L19.73,258A10.83,10.83,0,0,1,16,262c-2.56,1.47-5,.81-5.41-2.36L0,168.52c-.4-3.52,2.14-8.19,5.33-10l.66-.34,14.62-6.4c4.72,20.71,22.39,36.12,43.49,36.12A43,43,0,0,0,90,179.16Z"/><path class="cls-5" d="M236,197.68c.11,51-35.72,113.07-80.11,138.67-22.78,13.15-43.41,14.18-58.07,5.09l-11.53-6.72c-14.45-8.38-23.39-26.19-23.44-51.52-.16-51,35.67-113.07,80-138.73,22.36-12.88,42.6-14.07,57.22-5.57l11.36,6.6c.38.22.71.38,1.08.6C227,154.48,235.94,172.29,236,197.68Z"/><path class="cls-6" d="M212.55,146.1c-14.61-8.45-34.85-7.26-57.21,5.62-44.38,25.66-80.21,87.69-80,138.73,0,25.33,9,43.14,23.44,51.53l-12.46-7.26c-14.45-8.39-23.38-26.2-23.43-51.53-.17-51,35.66-113.07,80-138.72,22.35-12.89,42.6-14.08,57.21-5.58Z"/><ellipse class="cls-5" cx="155.62" cy="244.05" rx="113.26" ry="65.6" transform="translate(-133.58 255.98) rotate(-59.84)"/><path class="cls-7" d="M236,197.68c.11,51-35.72,113.07-80.11,138.67s-80.48,5.09-80.59-45.9a135.21,135.21,0,0,1,5.74-38c27.49,19.06,68.85,7.2,92.5-26.52,19.48-27.82,20.84-61.87,5.41-83.79C211.85,134.73,235.88,156.05,236,197.68Z"/><path class="cls-8" d="M178.09,236.68q3.41,2.85,3.43,10.73a33.74,33.74,0,0,1-3,13.41A50.19,50.19,0,0,1,170,274.1a61.45,61.45,0,0,1-12.83,11l0,8.61a6.33,6.33,0,0,1-.88,3.14,6.42,6.42,0,0,1-2.38,2.39,2.35,2.35,0,0,1-2.28.35c-.6-.3-.91-1-.92-2.15l0-8.62q-11.4,5.73-21.37,6.61a2.38,2.38,0,0,1-2.13-.78,3.51,3.51,0,0,1-.85-2.49,8.81,8.81,0,0,1,1.21-4.29,8.31,8.31,0,0,1,3.11-3.31,4.71,4.71,0,0,1,2-.68,44.94,44.94,0,0,0,18-5.53l-.08-27.94a60.86,60.86,0,0,1-12.12,2.25,11.22,11.22,0,0,1-8.22-2.49q-3.28-2.81-3.31-10A36.26,36.26,0,0,1,129.59,227a51.13,51.13,0,0,1,8-13.5,58,58,0,0,1,12.83-11.68l0-8.5a6.6,6.6,0,0,1,.9-3.21,6.1,6.1,0,0,1,2.27-2.39,2,2,0,0,1,3.29,1.87l0,8.38q10.38-5.49,18.42-6.61c2-.33,3,.73,3,3.15a9.2,9.2,0,0,1-1.16,4.19,7.88,7.88,0,0,1-3.06,3.35,4.69,4.69,0,0,1-1.7.5,51.84,51.84,0,0,0-15.45,5.63L157,237.1a65.86,65.86,0,0,1,12.65-2.81A11,11,0,0,1,178.09,236.68Zm-21,38Q172,264.83,172,252.18c0-3.15-1.26-4.88-3.77-5.17s-6.24.21-11.18,1.52l.08,26.12M150.55,239l-.08-26.72a41.83,41.83,0,0,0-10.14,10.29,20,20,0,0,0-3.78,11.24c0,3.56,1.2,5.64,3.57,6.22s5.85.23,10.43-1"/><path class="cls-9" d="M181.47,237.76q3.41,2.85,3.43,10.73a33.74,33.74,0,0,1-3,13.41,50.19,50.19,0,0,1-8.56,13.28,61.12,61.12,0,0,1-12.83,11l0,8.62a6.16,6.16,0,0,1-.88,3.13,6.38,6.38,0,0,1-2.38,2.4,2.35,2.35,0,0,1-2.28.35c-.6-.3-.91-1-.91-2.15l0-8.62q-11.4,5.73-21.37,6.6a2.33,2.33,0,0,1-2.13-.78,3.47,3.47,0,0,1-.85-2.48,8.81,8.81,0,0,1,1.21-4.29,8.31,8.31,0,0,1,3.11-3.31,4.87,4.87,0,0,1,2-.69,44.92,44.92,0,0,0,18-5.52L154,251.51a60.86,60.86,0,0,1-12.12,2.25,11.28,11.28,0,0,1-8.22-2.49q-3.28-2.81-3.31-10A36.25,36.25,0,0,1,133,228.07a51.13,51.13,0,0,1,8-13.5,58.3,58.3,0,0,1,12.83-11.69l0-8.5a6.59,6.59,0,0,1,.9-3.2,6.05,6.05,0,0,1,2.28-2.39,2,2,0,0,1,3.28,1.87l0,8.38q10.38-5.49,18.42-6.62c2-.33,3,.73,3,3.15a9.24,9.24,0,0,1-1.16,4.2,7.8,7.8,0,0,1-3.06,3.34,4.5,4.5,0,0,1-1.69.51,51.62,51.62,0,0,0-15.46,5.63l.08,28.93A65.86,65.86,0,0,1,173,235.37,11,11,0,0,1,181.47,237.76Zm-21,38q14.92-9.84,14.88-22.47c0-3.15-1.27-4.89-3.78-5.17s-6.24.21-11.18,1.52l.08,26.12m-6.57-35.65-.08-26.73a42.17,42.17,0,0,0-10.14,10.29,19.93,19.93,0,0,0-3.77,11.25c0,3.56,1.2,5.64,3.56,6.22s5.85.23,10.43-1"/></g></g></svg>