<svg xmlns="http://www.w3.org/2000/svg" viewBox="0 0 485.53 408.4"><defs><style>.cls-1{isolation:isolate;}.cls-2{fill:#edeef2;}.cls-3{fill:#e0e1ec;}.cls-4{fill:#f72d40;}.cls-5{fill:#e8183b;}.cls-6{fill:#ffd86a;}.cls-7{fill:#f7b92f;}.cls-8{fill:#fccb4f;}.cls-9{fill:#f2aa19;}.cls-10{fill:#fff;}.cls-11{fill:#ff3d47;}.cls-12{fill:#423751;}.cls-13{fill:#382e49;}.cls-14{fill:#28223d;}</style></defs><g id="图层_2" data-name="图层 2"><g id="Layer_1" data-name="Layer 1"><g class="cls-1"><polygon class="cls-2" points="354.07 344.72 243.76 408.37 175.79 368.92 230.63 210.28 298.61 249.81 354.07 344.72"/></g><g class="cls-1"><polygon class="cls-3" points="243.77 408.4 175.8 368.9 230.6 210.29 298.58 249.8 243.77 408.4"/><polygon class="cls-2" points="298.58 249.8 354.1 344.71 243.77 408.4 298.58 249.8"/></g><path class="cls-4" d="M485.42,188.63l-3.75,28.05c-.67,5-4.59,9.54-11.63,12.47L135.16,369.26c-14.16,5.93-35.6,3.12-47.83-6.26L8.26,302.44C2.09,297.7-.58,292.21.1,287.17l3.75-28c.65-5,4.58-9.56,11.63-12.51L350.36,106.54c14.18-5.93,35.6-3.12,47.84,6.26l79.07,60.56C483.44,178.08,486.1,183.59,485.42,188.63Z"/><path class="cls-5" d="M473.8,201.1,138.91,341.21c-14.16,5.93-35.59,3.13-47.83-6.26L12,274.37c-6.16-4.72-8.83-10.21-8.15-15.25L.1,287.17c-.67,5,2,10.53,8.16,15.26L87.32,363c12.25,9.39,33.67,12.19,47.84,6.27L470,229.15c7-2.94,11-7.49,11.63-12.47l3.76-28.05C484.76,193.61,480.84,198.16,473.8,201.1Z"/><path class="cls-4" d="M477.27,173.37c12.25,9.39,10.69,21.81-3.47,27.73L138.91,341.21c-14.16,5.93-35.59,3.13-47.83-6.26L12,274.37C-.24,265,1.32,252.57,15.48,246.65L350.37,106.53c14.17-5.92,35.59-3.12,47.84,6.27Z"/><path class="cls-6" d="M203.94,172.56c.09,45-31.54,99.81-70.72,122.41C113.11,306.58,94.9,307.49,82,299.46l-10.17-5.93c-12.76-7.4-20.64-23.12-20.69-45.48-.14-45,31.49-99.81,70.66-122.46,19.74-11.37,37.61-12.42,50.51-4.92l10,5.83,1,.52C196,134.43,203.89,150.15,203.94,172.56Z"/><path class="cls-7" d="M183.25,127c-12.9-7.45-30.77-6.4-50.51,5-39.17,22.65-70.81,77.4-70.66,122.46.05,22.36,7.93,38.08,20.69,45.49l-11-6.41C59,286.12,51.13,270.41,51.08,248c-.14-45,31.49-99.81,70.67-122.46,19.73-11.37,37.6-12.42,50.5-4.92Z"/><ellipse class="cls-6" cx="132.99" cy="213.49" rx="99.98" ry="57.91" transform="translate(-118.42 221.2) rotate(-59.84)"/><path class="cls-8" d="M203.94,172.56c.09,45-31.54,99.81-70.72,122.41s-71,4.49-71.14-40.52a119.46,119.46,0,0,1,5.06-33.54c24.28,16.82,60.78,6.35,81.66-23.41,17.2-24.56,18.39-54.62,4.78-74C182.63,117,203.84,135.81,203.94,172.56Z"/><path class="cls-9" d="M152.83,207q3,2.52,3,9.48a29.75,29.75,0,0,1-2.63,11.84A44.67,44.67,0,0,1,145.67,240a53.92,53.92,0,0,1-11.33,9.72l0,7.61a5.62,5.62,0,0,1-.78,2.77,5.74,5.74,0,0,1-2.1,2.11,2.1,2.1,0,0,1-2,.31c-.53-.27-.81-.89-.81-1.9l0-7.61a52.71,52.71,0,0,1-18.87,5.83,2.07,2.07,0,0,1-1.88-.69,3.11,3.11,0,0,1-.75-2.19,7.77,7.77,0,0,1,1.07-3.78,7.37,7.37,0,0,1,2.75-2.93,4.14,4.14,0,0,1,1.77-.6,39.72,39.72,0,0,0,15.88-4.88l-.07-24.67a53.52,53.52,0,0,1-10.7,2,10,10,0,0,1-7.26-2.2q-2.89-2.47-2.91-8.8A31.92,31.92,0,0,1,110,198.44a44.77,44.77,0,0,1,7.08-11.92,51.27,51.27,0,0,1,11.33-10.32l0-7.5a5.92,5.92,0,0,1,.79-2.83,5.33,5.33,0,0,1,2-2.11,2,2,0,0,1,2-.23,2,2,0,0,1,.86,1.88l0,7.4q9.16-4.84,16.26-5.84,2.61-.43,2.63,2.78a8.12,8.12,0,0,1-1,3.7,6.89,6.89,0,0,1-2.7,3,4,4,0,0,1-1.5.45,45.64,45.64,0,0,0-13.65,5l.08,25.54a57.51,57.51,0,0,1,11.16-2.48A9.73,9.73,0,0,1,152.83,207ZM134.31,240.5q13.17-8.67,13.13-19.83c0-2.78-1.11-4.31-3.33-4.57s-5.51.19-9.86,1.35l.06,23.05M128.51,209l-.06-23.59a36.69,36.69,0,0,0-9,9.09,17.64,17.64,0,0,0-3.33,9.92q0,4.73,3.15,5.49c2.09.52,5.16.21,9.2-.91"/><path class="cls-10" d="M155.81,207.94q3,2.51,3,9.47a29.54,29.54,0,0,1-2.63,11.84A44.16,44.16,0,0,1,148.65,241a53.92,53.92,0,0,1-11.33,9.72l0,7.61a5.42,5.42,0,0,1-.78,2.77,5.53,5.53,0,0,1-2.1,2.11,2.07,2.07,0,0,1-2,.31c-.53-.26-.8-.89-.81-1.9l0-7.61a52.41,52.41,0,0,1-18.86,5.83,2.07,2.07,0,0,1-1.88-.69,3,3,0,0,1-.75-2.19,7.75,7.75,0,0,1,1.06-3.78,7.37,7.37,0,0,1,2.75-2.93,4.14,4.14,0,0,1,1.77-.6,39.77,39.77,0,0,0,15.89-4.88l-.07-24.66a53,53,0,0,1-10.7,2,10,10,0,0,1-7.26-2.19c-1.93-1.66-2.91-4.59-2.92-8.81A32.16,32.16,0,0,1,113,199.39a45,45,0,0,1,7.09-11.92,51.46,51.46,0,0,1,11.32-10.32l0-7.5a5.83,5.83,0,0,1,.8-2.83,5.32,5.32,0,0,1,2-2.11,1.75,1.75,0,0,1,2.89,1.65l0,7.4q9.17-4.84,16.26-5.84,2.63-.43,2.63,2.78a8,8,0,0,1-1,3.7,6.89,6.89,0,0,1-2.7,2.95,4,4,0,0,1-1.5.45,45.86,45.86,0,0,0-13.64,5l.07,25.54a58.34,58.34,0,0,1,11.17-2.48A9.7,9.7,0,0,1,155.81,207.94ZM137.3,241.45q13.17-8.67,13.13-19.83c0-2.78-1.12-4.31-3.33-4.57s-5.51.19-9.87,1.35l.07,23M131.5,210l-.07-23.59a36.81,36.81,0,0,0-9,9.09,17.66,17.66,0,0,0-3.34,9.93q0,4.71,3.15,5.49c2.09.51,5.17.2,9.21-.92"/><path class="cls-11" d="M390.07,169l-14.81-8.61c12.85-10.71,24.36-24.71,33.47-40.15l14.81,8.61C414.43,144.31,402.92,158.31,390.07,169Z"/><path class="cls-11" d="M325.77,185.33,311,176.72c9.17,4.88,20.72,5.57,33.59,1.43l14.82,8.61C346.48,190.9,334.94,190.21,325.77,185.33Z"/><path class="cls-6" d="M444.79,58.45c.13,44.62-31.24,99-70.07,121.38-19.61,11.32-37.37,12.33-50.17,4.81l-14.66-8.51c-12.62-7.34-20.46-22.93-20.52-45.11-.13-44.61,31.25-99,70.07-121.37C370.08,3.51,380.17.4,389.22,0a37,37,0,0,1,20.24,4.71l14.74,8.57C436.87,20.62,444.73,36.23,444.79,58.45Z"/><path class="cls-7" d="M424.27,13.35A36.87,36.87,0,0,0,404,8.65c-9,.35-19.14,3.47-29.77,9.6C335.43,40.67,304.06,95,304.19,139.63c.06,22.18,7.89,37.77,20.51,45.1l-14.81-8.6c-12.62-7.34-20.46-22.93-20.52-45.11-.13-44.61,31.25-99,70.07-121.37C370.08,3.51,380.17.4,389.22,0a37,37,0,0,1,20.24,4.71Z"/><ellipse class="cls-6" cx="374.49" cy="99.04" rx="99.1" ry="57.4" transform="translate(100.7 373.06) rotate(-59.84)"/><path class="cls-8" d="M444.79,58.45c.13,44.62-31.24,99-70.07,121.38s-70.41,4.42-70.53-40.2c-.05-16.8,4.36-35,12-52.29A44.76,44.76,0,0,0,338.05,93c23.78,0,43.06-18.22,43.06-40.7a39.57,39.57,0,0,0-13.66-29.74q3.36-2.31,6.81-4.31C413.09-4.16,444.67,13.83,444.79,58.45Z"/><ellipse class="cls-7" cx="369.23" cy="97.35" rx="72.04" ry="41.73" transform="translate(99.55 367.68) rotate(-59.84)"/><ellipse class="cls-12" cx="374.49" cy="99.04" rx="72.04" ry="41.73" transform="translate(100.7 373.06) rotate(-59.84)"/><path class="cls-13" d="M425.59,69.54c.1,32.43-22.71,71.93-50.94,88.22s-51.17,3.22-51.27-29.22c0-14.65,4.59-30.74,12.29-45.49,10.09,7.55,25.52,4.64,34.93-6.75,9-10.91,9.31-25.74,1.16-34.43.84-.54,1.7-1.06,2.56-1.56C402.55,24,425.5,37.1,425.59,69.54Z"/><path class="cls-14" d="M385.17,89.06c7.24,1,7.49,8.58,6.41,14.78a27.29,27.29,0,0,1-3,8.13,25.45,25.45,0,0,1-5.35,7.18c-1.41,1.24-5.62,4.07-6.28,4.59,0,.25,0,5,0,5.45a5.94,5.94,0,0,1-2.66,4.57c-1.49.83-2.67.16-2.7-1.54,0-1,0-5.13,0-5.35l-3,1.74c0,.19,0,3.82,0,4.91a6.06,6.06,0,0,1-2.71,5.13c-1.58.91-2.73.12-2.77-2v-4.91c-.36.21-7.23,4.17-7.69,4.33-1.37.5-2.32-.34-2.21-2a6,6,0,0,1,2.69-4.43l2.38-1.38-.13-44.85-2.21,1.28c-1.69.91-2.87.34-2.91-1.43a5.9,5.9,0,0,1,2.87-4.75c1.63-1,3.21-1.88,4.93-2.88l2.12-1.22c0-.5,0-4,0-5.23a6.42,6.42,0,0,1,1.43-3.76,4.47,4.47,0,0,1,1.25-1.12,2.32,2.32,0,0,1,1.3-.35c1,.06,1.47.74,1.47,2l0,5.28,3-1.73c0-1.55,0-4.73,0-5.24a6,6,0,0,1,2.66-4.87c1.55-.89,2.67-.15,2.74,1.72,0,.79,0,5,0,5.23,6.11-2.54,10-1.17,11.64,4C390.18,75.86,389.08,82.11,385.17,89.06Zm-3.7,25.2a17,17,0,0,0,5.08-12.54c-.07-5.2-3.41-7.14-8-4.5l-2.72,1.56c-4.79,2.77-11.74,6.82-12.11,7l.06,19.22c.58-.34,11.61-6.71,15.63-9.06a10.85,10.85,0,0,0,2-1.71m-17.76-34,0,19.13.09,0a1.26,1.26,0,0,0,.26-.09c.52-.3,10.41-6,12.54-7.29a14.66,14.66,0,0,0,4.75-5.22,16.26,16.26,0,0,0,2.32-9.24c-.12-4.65-3.09-6.67-6.9-4.73-1.71.88-5.16,2.85-8.09,4.55l-1.9,1.1-1.6.92c-.64.37-1.12.65-1.35.77l-.14.15"/><path class="cls-10" d="M389.11,89.07c7.24,1,7.49,8.58,6.42,14.77a27.19,27.19,0,0,1-3,8.13,25.55,25.55,0,0,1-5.35,7.19c-1.41,1.24-5.62,4.07-6.28,4.58,0,.25,0,5,0,5.46a6,6,0,0,1-2.66,4.57c-1.49.82-2.67.15-2.71-1.55,0-1,0-5.13,0-5.35l-3,1.74c0,.19,0,3.82,0,4.91a6.11,6.11,0,0,1-2.71,5.13c-1.58.91-2.73.12-2.77-2v-4.91c-.36.21-7.23,4.17-7.69,4.34-1.37.49-2.32-.34-2.21-2a5.94,5.94,0,0,1,2.68-4.43l2.38-1.37L362,83.44l-2.21,1.27c-1.7.92-2.87.34-2.91-1.42a5.91,5.91,0,0,1,2.86-4.76c1.64-1,3.21-1.88,4.93-2.87l2.13-1.23c0-.49,0-4,0-5.23a6.5,6.5,0,0,1,1.42-3.76,4.6,4.6,0,0,1,1.26-1.11,2.32,2.32,0,0,1,1.3-.36c1,.06,1.46.74,1.47,2v5.27l3-1.72c.05-1.56,0-4.74,0-5.25A6,6,0,0,1,378,59.44c1.54-.9,2.67-.16,2.73,1.71,0,.8,0,5,0,5.24,6.12-2.55,10-1.17,11.65,4C394.13,75.87,393,82.12,389.11,89.07Zm-3.69,25.2a17.1,17.1,0,0,0,5.08-12.54c-.08-5.21-3.41-7.14-8-4.51l-2.72,1.56c-4.8,2.77-11.75,6.82-12.11,7l.05,19.21c.58-.33,11.62-6.7,15.64-9.06a10.71,10.71,0,0,0,2-1.7m-17.76-34,0,19.13.09-.05.26-.09c.52-.3,10.41-6,12.53-7.3a14.48,14.48,0,0,0,4.75-5.22,16.16,16.16,0,0,0,2.33-9.23c-.13-4.65-3.09-6.67-6.9-4.73-1.71.87-5.16,2.85-8.09,4.54l-1.91,1.1-1.59.93-1.35.76-.14.16"/></g></g></svg>