<svg xmlns="http://www.w3.org/2000/svg" viewBox="0 0 364.92 485.53"><defs><style>.cls-1{isolation:isolate;}.cls-2{fill:#edeef2;}.cls-3{fill:#382e49;}.cls-4{fill:#423751;}.cls-5{fill:#e0e1ec;}.cls-6{fill:#ff3d47;}.cls-7{fill:#ef253d;}.cls-8{fill:#f72d40;}</style></defs><g id="图层_2" data-name="图层 2"><g id="Layer_1" data-name="Layer 1"><g class="cls-1"><path class="cls-2" d="M35,384.62c17.54,8.4,39.35,2.27,56.18-5,17.4-7.53,33.58-17.71,49.34-28.16,15.59-10.33,31.37-20.45,46.63-31.25,22.07-15.6,44.28-30.59,67.54-44.39,10.51-6.23,21.06-12.16,31.21-19,9.6-6.46,19.24-12.74,30.19-16.66V99.6l-12.53-3.12a38,38,0,0,0-4.38-.84,148.51,148.51,0,0,0-2.55-15.73c-8.65-39.39-31.83-65.15-60.2-72.23l-.63-.17L213.57,2C196-2.41,176.44.38,157.13,11.52c-41,23.71-68.26,78.13-69.3,132C78.11,142,67.52,144,57.06,150c-30.5,17.6-48.39,63.2-39.92,101.9a70.45,70.45,0,0,0,9.65,23.68c-20.12,16.21-31.21,48.5-25.12,76.3,3.93,17.93,14.2,30,26.91,34C30.31,384.15,32.11,383.26,35,384.62Z"/></g><g class="cls-1"><path class="cls-3" d="M303.52,96.47l22.82,5.7a43.38,43.38,0,0,0-26.53,2.07L277,98.54A43.38,43.38,0,0,1,303.52,96.47Z"/><path class="cls-4" d="M236.39,7.68C218.83,3.29,199.26,6.07,180,17.23c-41.05,23.69-68.27,78.13-69.29,132l-22.84-5.71c1-53.88,28.26-108.3,69.3-132C176.44.38,196-2.41,213.57,2Z"/><path class="cls-3" d="M49.62,281.31l-22.82-5.7a70,70,0,0,1-9.66-23.69C8.66,213.23,26.56,167.64,57.06,150c10.46-6,21-8,30.78-6.49l22.82,5.69c-9.73-1.54-20.32.46-30.78,6.5-30.5,17.61-48.4,63.2-39.92,101.89A70,70,0,0,0,49.62,281.31Z"/></g><path class="cls-4" d="M53.39,392.23l-22.82-5.7C17,383.13,5.8,370.78,1.67,351.9c-6.09-27.79,5-60.08,25.13-76.29l22.82,5.7c-20.13,16.21-31.22,48.5-25.13,76.29C28.63,376.48,39.77,388.83,53.39,392.23Z"/><path class="cls-2" d="M180,17.22c50.47-29.14,102.64-1.11,116.62,62.7a148.72,148.72,0,0,1,3.23,24.32c28.05-11,55.24,6.28,63,41.72,8.45,38.56-9.45,84.13-40.06,101.81L80.44,387.67c-24.18,14-49.25.49-55.95-30.07-6.09-27.79,5-60.08,25.13-76.29A70,70,0,0,1,40,257.62c-8.48-38.69,9.42-84.28,39.92-101.89,10.46-6,21.05-8,30.78-6.5C111.7,95.35,138.91,40.92,180,17.22Z"/><path class="cls-5" d="M322.76,247.77,80.44,387.67c-24.18,14-49.25.49-55.95-30.07-6.09-27.79,5-60.09,25.12-76.29A70.21,70.21,0,0,1,40,257.62a97,97,0,0,1-1.2-33.49A107.46,107.46,0,0,0,79.35,232c56.24,0,101.83-42.6,101.83-95.15,0-32.23-17.14-60.72-43.38-77.93C149.05,41.38,163.39,26.79,180,17.23c50.47-29.15,102.64-1.12,116.63,62.68a150.07,150.07,0,0,1,3.22,24.33c28.05-11,55.24,6.28,63,41.72C371.28,184.52,353.37,230.09,322.76,247.77Z"/><path class="cls-6" d="M261.19,164.07l-13.76-3.73-20.1,11.6,13.46,65.12-76.34,44.08-11.3-54.69-13.76-3.73-20.09,11.6,51.15,247.47,13.76,3.74,20.09-11.6-13.46-65.12,76.34-44.08,11.3,54.69,13.76,3.74,20.1-11.61Zm-89.35,152.8,76.34-44.07L259.79,329l-76.34,44.08Z"/><g class="cls-1"><polygon class="cls-7" points="292.24 423.15 278.48 419.42 265.02 354.3 278.78 358.04 292.24 423.15"/><polygon class="cls-7" points="273.55 332.74 259.79 329 246.02 262.36 259.78 266.1 273.55 332.74"/><polygon class="cls-8" points="185.61 383.51 171.85 379.77 259.79 329 273.55 332.74 185.61 383.51"/><polygon class="cls-7" points="254.55 240.8 240.79 237.06 227.33 171.94 241.09 175.68 254.55 240.8"/><polygon class="cls-8" points="241.09 175.68 227.33 171.94 247.43 160.34 261.19 164.07 241.09 175.68"/><polygon class="cls-8" points="166.61 291.57 152.85 287.84 240.79 237.06 254.55 240.8 166.61 291.57"/><polygon class="cls-8" points="133.06 238.05 119.3 234.31 139.39 222.72 153.15 226.45 133.06 238.05"/><polygon class="cls-7" points="184.21 485.53 170.45 481.79 119.3 234.31 133.06 238.05 184.21 485.53"/><path class="cls-6" d="M241.09,175.68l20.1-11.61,51.15,247.48-20.1,11.61L278.78,358l-87.94,50.77,13.46,65.12-20.09,11.6L133.06,238.05l20.09-11.6,13.46,65.12,87.94-50.77Zm32.46,157.06L259.78,266.1l-87.94,50.77,13.77,66.64,87.94-50.77"/></g></g></g></svg>