<svg xmlns="http://www.w3.org/2000/svg" viewBox="0 0 428.64 625.48"><defs><style>.cls-1{fill:#5d35a6;}.cls-2{fill:#423751;}.cls-3{fill:#382e49;}.cls-4{fill:#ffd86a;}.cls-5{fill:#fccb4f;}.cls-6{fill:#edeef2;}.cls-7{fill:#ff3d47;}.cls-8{fill:#ef253d;}.cls-9{fill:#f7b92f;}.cls-10{fill:#f2aa19;}.cls-11{fill:#fff;}</style></defs><g id="图层_2" data-name="图层 2"><g id="Layer_1" data-name="Layer 1"><path class="cls-1" d="M424.67,362.9v0Z"/><path class="cls-1" d="M419.56,465.51s0,0-.05,0C419.82,464.61,419.85,464.56,419.56,465.51Z"/><path class="cls-2" d="M262.94,612.44a1.45,1.45,0,0,0,.18-.16c.47-3.41,1-6.68,1.39-10,1.25-9.07,2.43-18.19,1.7-27.3-2.59-28.33-27.7-53-56-55-5.3-.33-10.73-.06-15.94-1.24-11.6-2.73-20.2-13.24-23.6-24.7s-2.2-23.82.26-35.49c2.09-9.68,4.88-20.13.58-28.91-4.67-9.45-16.51-13.59-27-12.13s-19.53,7.48-27.82,14c-6.3,5-12.56,10.44-20.22,13C63.81,455.36,33.22,408.19.55,417.1a2.5,2.5,0,0,0-.09.25A213,213,0,0,1,33.25,289.1c61.08-96.48,186.49-127.58,285-72.75-1.2-.64-2.42-1.25-3.62-1.85-12.32.49-24.52,3.63-34,11.34-12,9.68-17.75,28-9.71,41.17,4.88,8,14.6,14.31,14.34,23.77-.23,7.26-7,13-14.18,14.59s-14.54-.24-21.64-2.16c-12.52-3.56-25.41-7.68-38.26-5.61s-25.33,12.92-24.2,25.83c.73,9.1,7.7,16.33,14.22,22.7,10.59,10.4,23.05,21.52,37.9,20.73,7.12-.43,13.88-3.66,21.07-4,15.71-.72,28.74,12.7,35.65,26.95s9.9,30.25,18.25,43.63c4.58,7.27,10.94,13.87,19.16,16.49s18.33.28,23-6.93c4.32-6.82,5.42-18.13,13.43-18.55,2.44-.13,4.75,1,6.84,2.09,15.09,8.44,26,22.62,38.29,34.67,1.5,1.51,3.07,3,4.65,4.3-1.72,4.67-12,33.74-24.12,52.9A213.65,213.65,0,0,1,262.94,612.44Z"/><path class="cls-1" d="M419.56,465.51s0,0-.05,0C419.82,464.61,419.85,464.56,419.56,465.51Z"/><path class="cls-3" d="M96.47,444.52C63.81,455.36,33.22,408.19.55,417.1a2.5,2.5,0,0,0-.09.25,214.16,214.16,0,0,1,85.2-185c-18.81,51.43-15.94,113.32,12.8,169.46a226.54,226.54,0,0,0,18.22,29.78C110.37,436.53,104.13,442,96.47,444.52Z"/><path class="cls-3" d="M263,612.41l.14-.13c.47-3.41,1-6.68,1.39-10,1.25-9.07,2.43-18.19,1.7-27.3-2.59-28.33-27.7-53-56-55-5.3-.33-10.73-.06-15.94-1.24-11.6-2.73-20.2-13.24-23.6-24.7a51.5,51.5,0,0,1-2-11.26c55.1,38.33,124.55,47.33,183.24,17.29,34.75-17.79,60.66-46.65,76.18-81.18A214.42,214.42,0,0,1,263,612.41Z"/><path class="cls-4" d="M419.57,465.52c-1.61-1.36-3.2-2.83-4.71-4.35-12.32-12.06-23.2-26.24-38.28-34.66-2.1-1.11-4.41-2.24-6.85-2.1-8,.42-9.11,11.73-13.42,18.53-4.69,7.24-14.81,9.58-23,7s-14.57-9.23-19.16-16.5C305.77,420,302.71,404,295.88,389.77s-19.95-27.66-35.65-26.95c-7.2.38-14,3.62-21.07,4.05-14.86.79-27.32-10.35-37.9-20.74-6.51-6.37-13.49-13.59-14.23-22.7-1.12-12.93,11.43-23.71,24.21-25.83s25.73,2,38.28,5.62c7.09,1.91,14.49,3.68,21.63,2.14s13.94-7.32,14.17-14.58c.27-9.47-9.44-15.74-14.34-23.77-8-13.16-2.27-31.49,9.7-41.19,9.47-7.68,21.67-10.84,34-11.34A158.45,158.45,0,0,1,329,222.66C412,275.22,446.63,375.65,419.57,465.52Z"/><path class="cls-5" d="M369.72,424.43c-8,.42-9.11,11.75-13.39,18.47-4.72,7.27-14.84,9.59-23,7s-14.6-9.24-19.2-16.52c-8.33-13.32-11.4-29.43-18.25-43.59s-19.91-27.7-35.63-27c-7.19.41-14,3.65-21.1,4-14.85.84-27.32-10.29-37.9-20.71-6.53-6.38-13.47-13.57-14.22-22.66-1.08-13,11.46-23.78,24.25-25.86s25.72,2,38.21,5.59c7.11,1.93,14.55,3.7,21.63,2.14s14-7.32,14.19-14.58c.26-9.45-9.41-15.73-14.3-23.73-8-13.17-2.29-31.54,9.72-41.19,9.44-7.7,21.61-10.82,33.93-11.32A144.57,144.57,0,0,1,329,222.69l1.82,1.22c-38.69,24.1-50.2,80-25.44,128.36,25.6,50,80.39,73.24,123.24,52.59a216.86,216.86,0,0,1-9.06,60.65,56.15,56.15,0,0,1-4.71-4.33c-12.31-12.09-23.22-26.25-38.29-34.69C374.51,425.4,372.19,424.28,369.72,424.43Z"/><path class="cls-4" d="M82.51,368.07c-11.4-1.84-20.15-10.86-27.23-20.05s-13.39-19.24-23.21-25.35a45.34,45.34,0,0,0-13.85-5.4,207.88,207.88,0,0,1,15-28.17,213.85,213.85,0,0,1,46.92-52.5,35.33,35.33,0,0,1,1.16,4.55c2.84,15.7-3.94,34.4,6.36,46.64,8.06,9.59,23.17,10.52,31.2,20,7.14,8.56,6.32,21.38,2.49,31.86C115.3,356,99.69,370.87,82.51,368.07Z"/><path class="cls-5" d="M82.48,368.07C71.11,366.24,62.34,357.2,55.25,348S41.89,328.74,32.1,322.69a43.73,43.73,0,0,0-13.9-5.39,203.65,203.65,0,0,1,15-28.15,211.79,211.79,0,0,1,46.92-52.52,32.64,32.64,0,0,1,1.18,4.49,30,30,0,0,1,.52,4.44,13.29,13.29,0,0,0-1.49.67C54.13,259.67,45.28,294.93,60.65,325c10.13,19.81,28.25,32.34,46.94,34.8C100.52,366,91.71,369.63,82.48,368.07Z"/><path class="cls-4" d="M262.93,612.45A214.29,214.29,0,0,1,.46,417.35a2.5,2.5,0,0,1,.09-.25c32.67-8.91,63.26,38.26,95.92,27.42,7.66-2.55,13.92-8,20.22-13,8.29-6.52,17.45-12.5,27.82-14s22.3,2.68,27,12.13c4.3,8.78,1.51,19.23-.58,28.91-2.46,11.67-3.66,24-.26,35.49s12,22,23.6,24.7c5.21,1.18,10.64.91,15.94,1.24,28.33,2,53.44,26.65,56,55,.73,9.11-.45,18.23-1.7,27.3-.42,3.32-.92,6.59-1.39,10Z"/><path class="cls-4" d="M43.28,532.81a194.91,194.91,0,0,1-15.52-23.56A215.57,215.57,0,0,1,.47,417.33c0-.08.08-.16.08-.24,9.46-2.58,18.75-.42,28,3.56,2.73,1.25,5.47,2.57,8.29,4.07C29.26,463.21,31.49,501.29,43.28,532.81Z"/><path class="cls-5" d="M262.93,612.45A214.29,214.29,0,0,1,.46,417.35a2.5,2.5,0,0,1,.09-.25c14.53-4,28.66,3.18,42.74,11.36a138.35,138.35,0,0,0,14.57,80.32c32.63,63.75,105.72,91.58,163.24,62.14a106.31,106.31,0,0,0,33-26.24A59.23,59.23,0,0,1,266.21,575c.73,9.11-.45,18.23-1.7,27.3-.42,3.32-.92,6.59-1.39,10Z"/><path class="cls-6" d="M224.29,617.76q-30.48,7.72-57.24,7.72c-58.9,0-103.87-27.54-127.59-79.73a171.22,171.22,0,0,1-11.7-36.5c-5.56-27.46-5.47-57.9.75-88.6a249.8,249.8,0,0,1,107.6-159.28,4.08,4.08,0,0,1,5.72,1.25,4.13,4.13,0,0,1-1.16,5.72C82.51,306.75,48.33,366.15,36.8,424.72c-7.54,38.49-5.31,76.57,6.48,108.09a92.93,92.93,0,0,0,3.81,9.54c24.56,54.18,73.92,80,138.63,73.75A205.9,205.9,0,0,0,224.29,617.76Z"/><path class="cls-7" d="M362.12,81.2,51.31,144.34a8.58,8.58,0,0,0-2.59,15.84L278.17,293.32a8.58,8.58,0,0,0,12.24-4.14L371.76,92.9A8.58,8.58,0,0,0,362.12,81.2Z"/><path class="cls-8" d="M301.69,116.85,116.14,199.3l11.55,69a10,10,0,0,0,15.52,6.52L190,242.17,305.67,122.53A3.53,3.53,0,0,0,301.69,116.85Z"/><path class="cls-4" d="M279.56,71.55c.12,56.82-39.8,126-89.26,154.52-25.39,14.65-48.37,15.8-64.71,5.67l-12.85-7.48c-16.1-9.35-26-29.19-26.11-57.42-.18-56.81,39.74-126,89.2-154.57,24.9-14.35,47.46-15.68,63.74-6.21l12.67,7.36c.42.24.78.42,1.21.66C269.49,23.43,279.5,43.27,279.56,71.55Z"/><path class="cls-9" d="M253.45,14.08C237.16,4.67,214.61,6,189.7,20.35c-49.46,28.59-89.38,97.7-89.2,154.58.06,28.22,10,48.06,26.11,57.41l-13.87-8.09c-16.11-9.34-26.06-29.19-26.12-57.41-.18-56.81,39.75-126,89.2-154.58,24.91-14.35,47.46-15.68,63.75-6.21Z"/><ellipse class="cls-4" cx="190.01" cy="123.23" rx="126.2" ry="73.1" transform="translate(-12 225.59) rotate(-59.84)"/><path class="cls-5" d="M279.56,71.55c.12,56.82-39.8,126-89.26,154.52s-89.68,5.67-89.8-51.14a150.7,150.7,0,0,1,6.39-42.34c30.64,21.23,76.72,8,103.07-29.55,21.71-31,23.22-68.94,6-93.36C252.66,1.41,279.44,25.18,279.56,71.55Z"/><path class="cls-10" d="M215,115q3.79,3.18,3.82,12a37.4,37.4,0,0,1-3.32,14.94,56,56,0,0,1-9.53,14.8A68.26,68.26,0,0,1,191.71,169l0,9.61a6.92,6.92,0,0,1-1,3.49,7.15,7.15,0,0,1-2.65,2.67,2.66,2.66,0,0,1-2.54.39c-.67-.34-1-1.13-1-2.4l0-9.6q-12.7,6.38-23.81,7.35a2.6,2.6,0,0,1-2.37-.87,3.89,3.89,0,0,1-1-2.77,9.74,9.74,0,0,1,1.35-4.77,9.13,9.13,0,0,1,3.47-3.69,5.27,5.27,0,0,1,2.23-.77q9.57-.62,20-6.15l-.09-31.13a67.52,67.52,0,0,1-13.5,2.5,12.61,12.61,0,0,1-9.17-2.77Q158.07,126.94,158,119a40.51,40.51,0,0,1,3-14.73,56.78,56.78,0,0,1,8.94-15,64.31,64.31,0,0,1,14.3-13l0-9.48a7.37,7.37,0,0,1,1-3.56,6.76,6.76,0,0,1,2.54-2.67,2.51,2.51,0,0,1,2.58-.29,2.49,2.49,0,0,1,1.08,2.37l0,9.34Q203,65.75,212,64.5c2.19-.37,3.31.81,3.31,3.51A10.17,10.17,0,0,1,214,72.68a8.87,8.87,0,0,1-3.41,3.73,5,5,0,0,1-1.89.56,57.9,57.9,0,0,0-17.23,6.28l.1,32.23a74.32,74.32,0,0,1,14.09-3.13A12.24,12.24,0,0,1,215,115Zm-23.37,42.31q16.64-10.95,16.58-25c0-3.51-1.41-5.45-4.2-5.77s-7,.24-12.46,1.7l.08,29.1m-7.31-39.72-.09-29.78A46.44,46.44,0,0,0,173,99.29a22.26,22.26,0,0,0-4.21,12.53q0,6,4,6.93c2.64.65,6.52.25,11.62-1.15"/><path class="cls-11" d="M218.81,116.21q3.8,3.18,3.82,12a37.58,37.58,0,0,1-3.32,15,55.76,55.76,0,0,1-9.54,14.79,68.34,68.34,0,0,1-14.3,12.28l0,9.6a7,7,0,0,1-1,3.49,7.22,7.22,0,0,1-2.65,2.67,2.66,2.66,0,0,1-2.54.39c-.67-.34-1-1.13-1-2.4l0-9.6q-12.71,6.38-23.81,7.36a2.64,2.64,0,0,1-2.37-.87,3.85,3.85,0,0,1-.95-2.78,9.83,9.83,0,0,1,1.34-4.77,9.33,9.33,0,0,1,3.47-3.69,5.28,5.28,0,0,1,2.24-.76q9.57-.63,20.05-6.16l-.09-31.13a67.6,67.6,0,0,1-13.51,2.5,12.52,12.52,0,0,1-9.16-2.77c-2.43-2.08-3.67-5.79-3.68-11.12a40.31,40.31,0,0,1,3-14.73,56.78,56.78,0,0,1,8.94-15,64.56,64.56,0,0,1,14.3-13l0-9.48a7.4,7.4,0,0,1,1-3.56,6.76,6.76,0,0,1,2.54-2.67,2.49,2.49,0,0,1,2.58-.28,2.45,2.45,0,0,1,1.07,2.36l0,9.34q11.56-6.12,20.53-7.37c2.19-.37,3.3.82,3.31,3.51a10.24,10.24,0,0,1-1.28,4.68,8.74,8.74,0,0,1-3.42,3.72,4.91,4.91,0,0,1-1.89.57,57.53,57.53,0,0,0-17.22,6.27l.09,32.23a74.23,74.23,0,0,1,14.1-3.13A12.26,12.26,0,0,1,218.81,116.21Zm-23.37,42.31q16.63-11,16.58-25c0-3.51-1.41-5.45-4.2-5.77s-7,.24-12.46,1.7l.08,29.1m-7.32-39.72L188,89a46.44,46.44,0,0,0-11.3,11.47A22.28,22.28,0,0,0,172.53,113q0,6,4,6.93c2.64.65,6.51.25,11.61-1.15"/></g></g></svg>