<svg xmlns="http://www.w3.org/2000/svg" viewBox="0 0 275.78 485.14"><defs><style>.cls-1{fill:#28223d;}.cls-2{fill:#edeef2;}.cls-3{fill:#e0e1ec;}.cls-4{fill:#423751;}.cls-5{fill:#382e49;}.cls-6{fill:#ffd86a;}.cls-7{fill:#f7b92f;}.cls-8{fill:#ef253d;}.cls-9{fill:#ff3d47;}.cls-10{fill:#f2aa19;}.cls-11{font-size:118.51px;fill:#fff;font-family:YEFONTAoYeHei-Regular, YEFONTAoYeHei;}</style></defs><g id="图层_2" data-name="图层 2"><g id="Layer_1" data-name="Layer 1"><path class="cls-1" d="M232.71,340.68c0,18.79-13.27,41.84-29.64,51.31L48.74,481.06c-8.26,4.77-15.77,5.23-21.15,2.05-.15-.08-.3-.23-.45-.31L9.55,472.65c-5.3-3.11-8.64-9.71-8.64-19.11L0,144.5c-.08-18.87,13.19-41.84,29.64-51.31L184,4c8.26-4.7,15.69-5.15,21.15-2L222,11.93c6,2.8,9.71,9.62,9.78,19.63Z"/><path class="cls-1" d="M205.09,2c-5.41-3.14-12.89-2.7-21.15,2.07L29.64,93.16C13.22,102.64,0,125.62,0,144.49L.88,453.56c0,9.37,3.34,16,8.68,19.07l18,10.49c-5.34-3.1-8.65-9.7-8.67-19.07L18.06,155c0-18.87,13.21-41.85,29.63-51.33L202,14.57c8.26-4.77,15.74-5.21,21.15-2.07Z"/><path class="cls-2" d="M202,14.57c16.42-9.48,29.77-1.87,29.82,17l.88,309.07c.05,18.87-13.21,41.85-29.63,51.33L48.76,481.05c-16.42,9.48-29.77,1.87-29.82-17L18.06,155c0-18.87,13.21-41.85,29.63-51.33Z"/><path class="cls-3" d="M232.68,340.65c.06,18.86-13.19,41.83-29.61,51.31L48.76,481c-16.42,9.5-29.77,1.87-29.83-17L18.5,310.11a118.58,118.58,0,0,0,36.59,5.75c70.16,0,127-61.12,127-136.52,0-49.93-24.95-93.6-62.18-117.41l82-47.36c16.42-9.48,29.75-1.87,29.81,17Z"/><path class="cls-1" d="M155.17,59.17a5.49,5.49,0,0,1-2.48,4.3L116,84.69a2.64,2.64,0,0,1-1.18.34,1.41,1.41,0,0,1-.71-.18,1.85,1.85,0,0,1-.78-1.69,5.46,5.46,0,0,1,2.5-4.3l36.73-21.2a1.62,1.62,0,0,1,2.65,1.51Z"/><path class="cls-1" d="M109,85.83a5.45,5.45,0,0,1-2.49,4.31L97.21,95.5a2.35,2.35,0,0,1-1.16.35,1.4,1.4,0,0,1-.7-.18A1.84,1.84,0,0,1,94.56,94a5.53,5.53,0,0,1,2.49-4.31l9.26-5.35a1.93,1.93,0,0,1,1.89-.18A1.84,1.84,0,0,1,109,85.83Z"/><path class="cls-4" d="M201.42,92.58C154,106.31,120.73,131.23,83.74,163.44c-18,15.73-40.73,8.31-52-6.32a27.81,27.81,0,0,0-.84,6.27l.84,295.51c0,10.71,7.64,15.06,17,9.67L203,379.49c9.33-5.38,16.88-18.48,16.85-29.19l-.76-269.55A32.61,32.61,0,0,1,201.42,92.58Z"/><path class="cls-5" d="M201.42,92.58A235.42,235.42,0,0,0,149.1,114.9a116,116,0,0,1,19.48,64.6c0,62-47.55,112.26-106.21,112.26a100.93,100.93,0,0,1-31.11-4.9l.48,172c0,10.71,7.64,15.06,17,9.67L203,379.49c9.33-5.38,16.87-18.47,16.84-29.19l-.75-269.55A32.61,32.61,0,0,1,201.42,92.58Z"/><path class="cls-6" d="M109.81,201.08c0,7.54-5.27,16.69-11.82,20.48s-11.86.74-11.91-6.79v-2.86L30.91,184.79V144.48l22.93-13.19,55.92,59.8Z"/><polygon class="cls-6" points="109.75 191.08 53.83 131.27 30.93 144.5 86.04 204.77 109.75 191.08"/><path class="cls-7" d="M109.74,191.08l.05,10c0,7.52-5.26,16.68-11.81,20.46s-11.87.75-11.89-6.77l0-10Z"/><path class="cls-8" d="M133.48,187.4c.05,7.53-5.27,16.69-11.76,20.48s-11.91.74-11.91-6.8l0-10L53.84,131.29l23.73-13.73,55.86,59.8Z"/><polygon class="cls-9" points="133.46 177.38 77.54 117.57 53.83 131.27 109.75 191.06 133.46 177.38"/><path class="cls-8" d="M133.46,177.38l0,10c0,7.52-5.26,16.68-11.81,20.46s-11.87.75-11.89-6.77l0-10Z"/><path class="cls-6" d="M157.2,173.72c.05,7.53-5.26,16.68-11.81,20.47s-11.86.74-11.86-6.79l-.05-10-55.91-59.8,23.67-13.69,55.91,59.81Z"/><polygon class="cls-6" points="157.16 163.69 101.25 103.89 77.54 117.57 133.46 177.38 157.16 163.69"/><path class="cls-7" d="M157.16,163.69l.05,10c0,7.52-5.26,16.67-11.81,20.45s-11.87.75-11.89-6.77l0-10Z"/><path class="cls-9" d="M180.93,160c0,7.48-5.27,16.63-11.81,20.42s-11.87.74-11.92-6.74l0-10-55.91-59.81L125,90.19,180.88,150Z"/><polygon class="cls-9" points="180.88 149.99 124.96 90.18 101.25 103.89 157.17 163.68 180.88 149.99"/><path class="cls-8" d="M180.88,150l0,10c0,7.52-5.26,16.68-11.81,20.46s-11.87.75-11.89-6.77l-.05-10Z"/><path class="cls-6" d="M204.65,146.35c0,7.48-5.26,16.64-11.81,20.43s-11.91.74-11.91-6.74l-.05-10L125,90.19l23.73-13.68,55.91,59.8Z"/><polygon class="cls-6" points="204.58 136.31 148.67 76.5 124.96 90.18 180.88 149.99 204.58 136.31"/><path class="cls-7" d="M204.58,136.31l0,10c0,7.52-5.27,16.68-11.81,20.45s-11.87.75-11.9-6.77l0-10Z"/><path class="cls-9" d="M228.33,132.62c0,7.53-5.27,16.69-11.81,20.47s-11.87.74-11.87-6.79l-.05-10-55.91-59.8,23.67-13.73,55.92,59.85Z"/><polygon class="cls-9" points="228.29 122.6 172.38 62.8 148.67 76.5 204.59 136.29 228.29 122.6"/><path class="cls-8" d="M228.29,122.6l.05,10c0,7.52-5.27,16.67-11.81,20.45s-11.87.75-11.9-6.77l0-10Z"/><path class="cls-6" d="M252.05,118.94c0,7.53-5.26,16.68-11.81,20.47s-11.86.74-11.91-6.79l-.05-10L172.36,62.78l23.73-13.69L252,108.89Z"/><polygon class="cls-6" points="252 108.92 196.09 49.11 172.38 62.8 228.29 122.61 252 108.92"/><path class="cls-7" d="M252,108.92l.05,10c0,7.52-5.27,16.68-11.81,20.46s-11.88.75-11.9-6.77l-.05-10Z"/><path class="cls-8" d="M275.78,105.25c0,7.48-5.27,16.69-11.82,20.43s-11.91.79-11.91-6.74l-.05-10-55.91-59.8,23.72-13.68,55.92,59.8Z"/><polygon class="cls-9" points="275.71 95.22 219.8 35.41 196.09 49.11 252.01 108.9 275.71 95.22"/><path class="cls-8" d="M275.71,95.22l.05,10c0,7.52-5.27,16.68-11.81,20.45s-11.88.75-11.9-6.77l0-10Z"/><polygon class="cls-10" points="30.93 144.5 30.93 184.77 86.07 211.9 86.04 204.77 30.93 144.5"/><text class="cls-11" transform="matrix(0.68, -0.4, 0.05, 1, 58.83, 416.64)">NFT</text></g></g></svg>