<svg xmlns="http://www.w3.org/2000/svg" viewBox="0 0 489.42 425.1"><defs><style>.cls-1{fill:none;}.cls-2{fill:#28223d;}.cls-3{fill:#edeef2;}.cls-4{fill:#e0e1ec;}.cls-5{fill:#423751;}.cls-6{fill:#382e49;}.cls-7{fill:#ffd86a;}.cls-8{fill:#f7b92f;}.cls-9{fill:#ef253d;}.cls-10{fill:#ff3d47;}.cls-11{fill:#f2aa19;}.cls-12{isolation:isolate;font-size:97.66px;fill:#fff;font-family:YEFONTAoYeHei-Regular, YEFONTAoYeHei;}</style></defs><g id="图层_2" data-name="图层 2"><g id="图层_1-2" data-name="图层 1"><rect class="cls-1" width="489.42" height="425.1"/><g id="图层_2-2" data-name="图层 2"><g id="Layer_1" data-name="Layer 1"><path class="cls-2" d="M326.39,294.13c0,15.46-10.92,34.44-24.39,42.23l-127,73.3c-6.79,3.93-13,4.31-17.4,1.69-.13-.06-.25-.19-.37-.25l-14.48-8.36c-4.36-2.56-7.11-8-7.11-15.72l-.75-254.35c-.06-15.53,10.86-34.43,24.39-42.23L286.3,17c6.8-3.87,12.92-4.24,17.41-1.65l13.87,8.18c4.94,2.3,8,7.91,8.05,16.15Z"/><path class="cls-2" d="M303.66,15.39c-4.45-2.58-10.61-2.22-17.4,1.71l-127,73.32c-13.51,7.8-24.39,26.71-24.39,42.24L135.6,387c0,7.71,2.74,13.17,7.14,15.7l14.81,8.63c-4.39-2.55-7.12-8-7.13-15.69l-.69-254.36c0-15.53,10.88-34.44,24.39-42.24l127-73.33c6.8-3.93,12.95-4.29,17.41-1.71Z"/><path class="cls-3" d="M301.12,25.74c13.51-7.8,24.5-1.54,24.54,14l.73,254.37c0,15.53-10.88,34.44-24.39,42.24L175,409.66c-13.51,7.8-24.5,1.54-24.54-14l-.73-254.36c0-15.53,10.88-34.44,24.39-42.24Z"/><path class="cls-4" d="M326.37,294.11c.05,15.52-10.86,34.42-24.37,42.22L175,409.62c-13.51,7.81-24.5,1.53-24.55-14L150.1,269a97.39,97.39,0,0,0,30.11,4.73c57.74,0,104.52-50.3,104.52-112.35,0-41.1-20.53-77-51.17-96.63l67.49-39c13.51-7.8,24.48-1.54,24.53,14Z"/><path class="cls-2" d="M262.58,62.44a4.52,4.52,0,0,1-2,3.54l-30.2,17.47a2.22,2.22,0,0,1-1,.28,1.2,1.2,0,0,1-.59-.15,1.54,1.54,0,0,1-.64-1.39,4.52,4.52,0,0,1,2.06-3.54L260.43,61.2a1.33,1.33,0,0,1,1.88.15,1.31,1.31,0,0,1,.3,1.09Z"/><path class="cls-2" d="M224.58,84.39a4.48,4.48,0,0,1-2.05,3.54l-7.65,4.41a1.93,1.93,0,0,1-1,.29,1.13,1.13,0,0,1-.57-.15,1.52,1.52,0,0,1-.66-1.37,4.6,4.6,0,0,1,2.05-3.55l7.63-4.4a1.56,1.56,0,0,1,1.55-.15A1.53,1.53,0,0,1,224.58,84.39Z"/><path class="cls-5" d="M300.64,89.94c-39,11.3-66.41,31.81-96.85,58.32-14.81,13-33.52,6.84-42.8-5.2a23.64,23.64,0,0,0-.69,5.16L161,391.43c0,8.81,6.29,12.39,14,8l127-73.32c7.68-4.43,13.89-15.21,13.87-24l-.63-221.84A26.86,26.86,0,0,1,300.64,89.94Z"/><path class="cls-6" d="M300.64,89.94a193.89,193.89,0,0,0-43.06,18.37,95.36,95.36,0,0,1,16,53.17c0,51-39.13,92.39-87.41,92.39a83.33,83.33,0,0,1-25.6-4L161,391.39c0,8.82,6.29,12.4,14,8l127-73.28c7.68-4.43,13.89-15.2,13.86-24l-.62-221.84A26.86,26.86,0,0,1,300.64,89.94Z"/><path class="cls-7" d="M225.25,179.24c0,6.2-4.34,13.73-9.73,16.85s-9.76.61-9.8-5.58v-2.36l-45.41-22.32V132.66l18.87-10.86,46,49.22Z"/><polygon class="cls-7" points="225.2 171.01 179.17 121.78 160.33 132.67 205.68 182.28 225.2 171.01"/><path class="cls-8" d="M225.19,171l0,8.23c0,6.19-4.33,13.73-9.72,16.84s-9.77.61-9.79-5.57v-8.24Z"/><path class="cls-9" d="M244.73,168c0,6.2-4.34,13.74-9.68,16.85s-9.8.61-9.8-5.59V171L179.18,121.8l19.53-11.3,46,49.22Z"/><polygon class="cls-10" points="244.71 159.73 198.69 110.51 179.17 121.78 225.2 170.99 244.71 159.73"/><path class="cls-9" d="M244.71,159.73V168c0,6.19-4.33,13.73-9.72,16.84s-9.77.62-9.79-5.57V171Z"/><path class="cls-7" d="M264.25,156.72c0,6.2-4.33,13.73-9.72,16.85s-9.76.61-9.76-5.59l0-8.23-46-49.22,19.48-11.26,46,49.22Z"/><polygon class="cls-7" points="264.21 148.47 218.2 99.25 198.69 110.51 244.71 159.73 264.21 148.47"/><path class="cls-8" d="M264.22,148.47l0,8.23c0,6.18-4.33,13.72-9.72,16.83s-9.77.61-9.79-5.58v-8.23Z"/><path class="cls-10" d="M283.78,145.43c0,6.15-4.34,13.69-9.72,16.8s-9.77.61-9.81-5.54v-8.23l-46-49.23L237.75,88l46,49.23Z"/><polygon class="cls-10" points="283.74 137.19 237.71 87.97 218.2 99.25 264.22 148.46 283.74 137.19"/><path class="cls-9" d="M283.74,137.2v8.23c0,6.19-4.33,13.73-9.72,16.84s-9.77.61-9.79-5.57l0-8.23Z"/><path class="cls-7" d="M303.3,134.19c0,6.16-4.33,13.7-9.72,16.82s-9.8.61-9.8-5.55l0-8.23L237.75,88l19.53-11.25,46,49.21Z"/><polygon class="cls-7" points="303.24 125.93 257.23 76.71 237.71 87.97 283.74 137.19 303.24 125.93"/><path class="cls-8" d="M303.24,125.93v8.23c0,6.19-4.33,13.73-9.72,16.83s-9.77.62-9.79-5.57v-8.23Z"/><path class="cls-10" d="M322.79,122.89c0,6.2-4.34,13.74-9.72,16.85s-9.77.61-9.77-5.59l0-8.23-46-49.21,19.49-11.3,46,49.25Z"/><polygon class="cls-10" points="322.76 114.65 276.74 65.43 257.23 76.71 303.25 125.92 322.76 114.65"/><path class="cls-9" d="M322.76,114.65l0,8.23c0,6.19-4.34,13.72-9.72,16.83s-9.77.62-9.8-5.57v-8.23Z"/><path class="cls-7" d="M342.31,111.64c0,6.19-4.33,13.72-9.72,16.84s-9.76.61-9.8-5.59l0-8.23-46-49.24,19.53-11.27,46,49.21Z"/><polygon class="cls-7" points="342.27 103.39 296.25 54.16 276.74 65.43 322.76 114.66 342.27 103.39"/><path class="cls-8" d="M342.27,103.39l0,8.23c0,6.19-4.34,13.73-9.72,16.84s-9.78.62-9.79-5.57l0-8.23Z"/><path class="cls-9" d="M361.84,100.37c0,6.16-4.34,13.73-9.73,16.81s-9.8.65-9.8-5.54l0-8.23-46-49.22,19.52-11.26,46,49.22Z"/><polygon class="cls-10" points="361.78 92.11 315.77 42.89 296.25 54.16 342.28 103.37 361.78 92.11"/><path class="cls-9" d="M361.78,92.11l0,8.23c0,6.19-4.33,13.73-9.72,16.83s-9.77.62-9.79-5.57v-8.23Z"/><polygon class="cls-11" points="160.33 132.67 160.33 165.81 205.71 188.14 205.68 182.28 160.33 132.67"/><text class="cls-12" transform="matrix(0.68, -0.4, 0.05, 1, 183.29, 356.65)">NFT</text></g></g></g></g></svg>