<svg xmlns="http://www.w3.org/2000/svg" viewBox="0 0 452.86 405.06"><defs><style>.cls-1{fill:#ebebeb;}.cls-2{fill:#e0e0e0;}.cls-3{fill:#f5f5f5;}.cls-4{opacity:0.5;}.cls-5{fill:#fafafa;}.cls-6{fill:#263238;}.cls-7{fill:#b78876;}.cls-8{fill:#aa6550;}.cls-9{fill:#e8505b;}.cls-10{opacity:0.3;}.cls-11,.cls-15{opacity:0.2;}.cls-12{fill:#455a64;}.cls-13{opacity:0.4;}.cls-14{fill:#fff;}</style></defs><g id="图层_2" data-name="图层 2"><g id="Background_Complete" data-name="Background Complete"><path class="cls-1" d="M180.92,401.07c23.41-15.2,29.61-44.68,29.6-71.37,0-4.45.65-9.13-1.33-13.1s-6.83-6.82-10.88-5.08c-3.36,1.45-4.93,5.24-6.89,8.36a26,26,0,0,1-10.77,9.61c-2.88,1.38-6.42,2.16-9.17.52-3.76-2.25-4-7.57-3.86-12q.49-12.37,1-24.74c.17-4.43.34-8.94-.89-13.19s-4.15-8.25-8.32-9.58-9.46.93-10.49,5.23c-.43,1.79-.13,3.68-.31,5.51s-1.11,3.84-2.88,4.29-3.51-.86-4.79-2.2c-4.41-4.62-7.32-10.48-10-16.3s-5.32-11.78-9.3-16.8-9.58-9.07-15.9-9.64-13.22,3.11-15,9.27,1.61,12.64,5.4,17.83A99,99,0,0,0,116,288c1.36,1,2.84,2.16,3.32,3.82.86,3-2,5.82-5,6.69-3.34,1-6.91.52-10.37.81s-7.26,1.68-8.67,4.9c-2,4.46,1.65,9.33,5.27,12.57a84.55,84.55,0,0,0,24.56,15.3c3.21,1.3,6.6,2.47,9.15,4.84s4,6.41,2.31,9.47-5.8,3.93-9.19,3.18-6.38-2.7-9.59-4c-6-2.5-13.87-2.35-17.94,2.78-2.68,3.37-3.07,8.17-1.91,12.33s3.66,7.8,6.33,11.17c9.36,11.76,21.53,21.4,35.47,26.77s27,7.13,41.17,2.48"/><path class="cls-2" d="M178.2,401.94c-.61-10.59-.1-4.24-3.59-17.81a396.81,396.81,0,0,0-14.3-43.23q-2.19-5.64-4.33-11.14c-1.43-3.65-2.84-7.28-4.45-10.73a194.9,194.9,0,0,0-10.36-19.34c-3.59-6-7.22-11.55-10.65-16.72s-6.74-9.92-9.93-14.12a157.74,157.74,0,0,0-16.53-18.7c-2.11-2-3.81-3.58-5-4.6l-1.33-1.16a3.66,3.66,0,0,0-.47-.37,3,3,0,0,0,.42.44L99,245.67c1.12,1.07,2.78,2.64,4.86,4.71a166.38,166.38,0,0,1,16.29,18.82c3.15,4.22,6.42,9,9.83,14.15s7,10.74,10.57,16.73a198.31,198.31,0,0,1,10.28,19.29c1.59,3.44,3,7,4.42,10.69l4.32,11.14a405.38,405.38,0,0,1,14.33,43.12c3.52,13.52,3.07,7.11,3.75,17.66"/><path class="cls-2" d="M151.3,319a8.62,8.62,0,0,0,.5-1.88c.27-1.21.61-3,1-5.18.78-4.38,1.64-10.48,2.57-17.2s1.88-12.78,2.72-17.14c.41-2.19.76-3.95,1-5.16a8.53,8.53,0,0,0,.31-1.92,9.51,9.51,0,0,0-.62,1.84c-.35,1.19-.79,2.94-1.28,5.12-1,4.34-2,10.42-2.95,17.15s-1.71,12.64-2.33,17.22c-.3,2.07-.55,3.82-.75,5.22A8.38,8.38,0,0,0,151.3,319Z"/><path class="cls-2" d="M94.76,306.42a11.75,11.75,0,0,0,2.26.35c1.46.18,3.56.43,6.16.82,5.19.74,12.33,2,20.14,3.76s14.81,3.66,19.84,5.18c2.52.74,4.54,1.39,5.94,1.84a12.56,12.56,0,0,0,2.2.62,11.82,11.82,0,0,0-2.1-.93c-1.37-.54-3.37-1.28-5.87-2.09-5-1.67-12-3.66-19.83-5.43A200.84,200.84,0,0,0,103.25,307c-2.61-.32-4.73-.48-6.2-.56A12.19,12.19,0,0,0,94.76,306.42Z"/><path class="cls-2" d="M173.94,383.06a3,3,0,0,0,.42-.68l1-2c.9-1.76,2.13-4.35,3.61-7.56,3-6.43,6.78-15.43,10.86-25.42s7.81-19,10.64-25.51c1.39-3.15,2.53-5.74,3.37-7.66.37-.84.66-1.53.91-2.09a2.44,2.44,0,0,0,.26-.76,3.88,3.88,0,0,0-.41.69l-1,2c-.9,1.76-2.13,4.35-3.61,7.56-3,6.43-6.79,15.43-10.87,25.43s-7.81,19-10.63,25.5l-3.38,7.66-.9,2.09A3.18,3.18,0,0,0,173.94,383.06Z"/><path class="cls-2" d="M99.16,356.12a2.88,2.88,0,0,0,.74.34l2.17.81,8,2.9c6.76,2.45,16.06,5.93,26.33,9.8s19.61,7.28,26.42,9.59c3.41,1.16,6.18,2.07,8.1,2.65l2.22.67a3.74,3.74,0,0,0,.79.18,2.7,2.7,0,0,0-.74-.34l-2.17-.81-8-2.9c-6.76-2.45-16.06-5.94-26.33-9.81s-19.61-7.28-26.43-9.58c-3.4-1.16-6.17-2.07-8.09-2.66L100,356.3A3.74,3.74,0,0,0,99.16,356.12Z"/><path class="cls-1" d="M372,175.6s-12.06-6.38-23.21,22.07-14.84,44.6-14.84,44.6-3.1,6-7.36,2.71-10.64-13.33-17.08-10.79c-6.69,2.64-8.2,10.54-5.78,21.68s6.82,35.76,7.21,38-.56,5.56-3.83,3.75-22.81-19.68-30.74-9.9,3.91,39.72,5.14,43,.71,4.81-.82,5.8-7.52-5.63-13.29-10.49-13.3-9.48-17.41-3.46-3.32,29.29,22.37,64.68l13,15.62,20.15-3.12c42.73-9.29,58.81-26.13,59.76-33.35s-7.75-8.8-15.29-9-16.43.74-16.91-1,.15-3.23,3.26-4.87,31.89-16.1,32.48-28.68-25.89-12.25-29.53-13.08-2.1-4-.36-5.35,21.45-16.83,30.68-23.54,13.36-13.6,10.13-20c-3.11-6.19-14.53-3-19.93-3.33s-3.68-6.91-3.68-6.91,8-14.51,18.62-43.16-3-31.94-3-31.94"/><path class="cls-2" d="M285.82,398.48c7.89-21,19-50,31.45-81.87s23.61-60.82,31.61-81.79L358.32,210l2.58-6.75.68-1.76c.16-.39.25-.58.25-.58s-.05.21-.19.61l-.63,1.77-2.46,6.79c-2.14,5.9-5.3,14.42-9.25,24.92-7.89,21-19,49.94-31.44,81.86s-23.62,60.83-31.62,81.8"/><path class="cls-2" d="M317.72,248.37a6.68,6.68,0,0,1,.64,1.32c.38.86.89,2.13,1.51,3.7,1.24,3.14,2.83,7.52,4.5,12.38l4.23,12.48c.51,1.49.95,2.75,1.3,3.77a6,6,0,0,1,.42,1.4,6.35,6.35,0,0,1-.65-1.31c-.38-.87-.89-2.13-1.49-3.71-1.21-3.15-2.74-7.55-4.41-12.42l-4.31-12.44-1.33-3.76A7.07,7.07,0,0,1,317.72,248.37Z"/><path class="cls-2" d="M332.22,283.6c-.07-.16,8.82-3.84,19.85-8.22s20-7.79,20.08-7.63-8.82,3.84-19.85,8.22S332.28,283.76,332.22,283.6Z"/><path class="cls-2" d="M311,331.76a6.29,6.29,0,0,1,1.48-.22l4.06-.38c3.42-.33,8.15-.8,13.35-1.52s9.88-1.5,13.26-2.11l4-.71a7,7,0,0,1,1.49-.2,6.1,6.1,0,0,1-1.43.44c-.94.23-2.3.55-4,.91-3.37.72-8.06,1.59-13.27,2.3s-10,1.12-13.4,1.33c-1.72.1-3.11.17-4.07.19A7.26,7.26,0,0,1,311,331.76Z"/><path class="cls-2" d="M290.82,302.77a7.17,7.17,0,0,1,.9,1.06l2.27,3c1.89,2.55,4.48,6.11,7.29,10.06s5.35,7.54,7.15,10.17l2.1,3.12a6.22,6.22,0,0,1,.71,1.2,6.19,6.19,0,0,1-.91-1.06l-2.26-3c-1.9-2.56-4.48-6.12-7.3-10.07s-5.34-7.54-7.14-10.17L291.52,304A5.78,5.78,0,0,1,290.82,302.77Z"/><path class="cls-2" d="M266.64,342.9a9.54,9.54,0,0,1,1.14,1.36l2.93,3.85c2.44,3.26,5.78,7.79,9.45,12.82s6.94,9.6,9.3,12.93l2.76,4a9.16,9.16,0,0,1,.94,1.5A9.61,9.61,0,0,1,292,378l-2.92-3.84c-2.45-3.26-5.79-7.79-9.45-12.82s-6.95-9.6-9.31-12.93l-2.76-4A9.87,9.87,0,0,1,266.64,342.9Z"/><path class="cls-2" d="M292.77,378.27a12.18,12.18,0,0,1,1.87-.32l5.13-.67c4.33-.57,10.3-1.39,16.87-2.47s12.49-2.2,16.77-3.05l5.08-1a11.6,11.6,0,0,1,1.87-.3,11.62,11.62,0,0,1-1.82.54c-1.18.3-2.9.72-5,1.19-4.27,1-10.19,2.17-16.77,3.24s-12.57,1.83-16.92,2.29c-2.17.23-3.93.39-5.15.48A9.77,9.77,0,0,1,292.77,378.27Z"/><path class="cls-1" d="M350.87,103.37s-5.74,7.51-16.93,5.37c-6.92-1.32-20.64-2-22.41,3.12l2.06,15.44a42.53,42.53,0,0,1,18.36-.15c9.11,2.18,22.27-4.27,22.27-4.27Z"/><path class="cls-3" d="M332.23,124.93a7.43,7.43,0,0,1-6.61-9.1c1-3.75,6.6-5.47,10.34-4.44a7,7,0,0,1,4.91,8.64C339.84,123.77,336.1,125.3,332.23,124.93Z"/><path class="cls-1" d="M331.13,122.18c0-.12.32-.16.81-.18a8.36,8.36,0,0,0,2-.25,2.93,2.93,0,0,0,1.07-.54,1.5,1.5,0,0,0,.59-.92,1.17,1.17,0,0,0-.34-1,2,2,0,0,0-1.31-.34c-.31,0-.66,0-1,0a3.79,3.79,0,0,1-1.22-.25,2.77,2.77,0,0,1-.6-.35,2.15,2.15,0,0,1-.5-.54,2.38,2.38,0,0,1-.38-1.29,2.59,2.59,0,0,1,.32-1.2,2.63,2.63,0,0,1,.76-.82,3.58,3.58,0,0,1,1.66-.6,4.44,4.44,0,0,1,1.34.05,6,6,0,0,1,.93.23c.5.17.75.33.73.44s-.32.18-.82.2a9.32,9.32,0,0,0-2,.24,2.75,2.75,0,0,0-1,.54,1,1,0,0,0-.38.89.82.82,0,0,0,.15.42.75.75,0,0,0,.16.15,1.24,1.24,0,0,0,.23.12,6,6,0,0,0,1.7.13,4.84,4.84,0,0,1,1.2.16,3.14,3.14,0,0,1,.64.25,2.48,2.48,0,0,1,.57.44,2.68,2.68,0,0,1,.7,2.44,2.77,2.77,0,0,1-1.31,1.77,4,4,0,0,1-1.64.57,5.24,5.24,0,0,1-2.28-.28C331.35,122.47,331.1,122.29,331.13,122.18Z"/><path class="cls-1" d="M335,123.93c-.23,0-.71-2.47-1.08-5.58s-.48-5.65-.25-5.68.71,2.47,1.08,5.58S335.23,123.9,335,123.93Z"/><path class="cls-1" d="M333.7,123.79c-.22,0-.68-2.24-1-5.06s-.42-5.13-.19-5.16.69,2.24,1,5.06S333.93,123.77,333.7,123.79Z"/><g class="cls-4"><path class="cls-5" d="M314.9,125.65l-1.83-14.05.11-.08c5.47-4,15.56-2.34,22.24-1.22,1.15.19,2.24.38,3.18.51,6.27.88,10.94-4.06,11.06-4.63l.5,0,2.22,15.13-.13.08A29,29,0,0,1,329.1,125c-5.32-1.54-13.85.61-13.93.64Zm-1.3-13.82L315.32,125c1.53-.37,8.95-2,13.92-.56a28.55,28.55,0,0,0,22.6-3.43l-2.07-14.13a10.06,10.06,0,0,1-1,1c-1.1,1-5.1,4.12-10.26,3.39-.94-.13-2-.32-3.19-.51C328.79,109.69,318.92,108,313.6,111.83Z"/></g><path class="cls-1" d="M272,18.19s-9,3-17-5c-5-5-16-13.16-20.34-9.93l-6.9,14a42.42,42.42,0,0,1,15.3,10.12c6.34,6.91,20.86,8.9,20.86,8.9Z"/><path class="cls-3" d="M244.54,25.66a7.43,7.43,0,0,1-.4-11.25c2.94-2.52,8.53-.84,11.06,2.1a7,7,0,0,1-.76,9.91C251.5,29,247.54,28.12,244.54,25.66Z"/><path class="cls-1" d="M245.15,22.76c.09-.08.36,0,.78.31a9,9,0,0,0,1.77.89,3.33,3.33,0,0,0,1.19.15,1.5,1.5,0,0,0,1-.44,1.2,1.2,0,0,0,.27-1,2,2,0,0,0-.89-1c-.26-.19-.55-.37-.85-.61a3.69,3.69,0,0,1-.87-.89,2.64,2.64,0,0,1-.31-.63,2.51,2.51,0,0,1-.11-.72,2.4,2.4,0,0,1,.41-1.28,2.43,2.43,0,0,1,.93-.82,2.65,2.65,0,0,1,1.09-.25,3.51,3.51,0,0,1,1.71.42,5,5,0,0,1,1.09.79,7.28,7.28,0,0,1,.64.71c.31.43.43.7.35.78s-.35,0-.79-.29a8.62,8.62,0,0,0-1.76-.9,2.66,2.66,0,0,0-1.15-.13,1,1,0,0,0-.81.52.85.85,0,0,0-.11.45.49.49,0,0,0,.05.2,1.27,1.27,0,0,0,.12.23,6.37,6.37,0,0,0,1.34,1.06,5.07,5.07,0,0,1,.91.8,3.33,3.33,0,0,1,.38.57,2.11,2.11,0,0,1,.23.68,2.65,2.65,0,0,1-.78,2.42,2.82,2.82,0,0,1-2.08.73,4,4,0,0,1-1.67-.44,5.45,5.45,0,0,1-1.74-1.5C245.18,23.12,245.07,22.84,245.15,22.76Z"/><path class="cls-1" d="M247.39,26.38c-.2-.11.79-2.45,2.23-5.23s2.76-5,3-4.86-.79,2.45-2.22,5.24S247.6,26.48,247.39,26.38Z"/><path class="cls-1" d="M246.39,25.54c-.2-.1.69-2.24,2-4.76s2.52-4.49,2.73-4.39-.69,2.24-2,4.77S246.6,25.65,246.39,25.54Z"/><g class="cls-4"><path class="cls-5" d="M229.75,16.58,236.09,3.9h.14c6.79-.29,14.21,6.75,19.13,11.41.84.8,1.64,1.56,2.35,2.19,4.71,4.24,11.34,2.75,11.76,2.35l.42.25-6.61,13.79h-.16a29,29,0,0,1-21.19-10c-3.55-4.25-11.83-7.23-11.91-7.26ZM236.4,4.39l-6,11.91c1.47.55,8.54,3.34,11.86,7.31A28.49,28.49,0,0,0,263,33.39l6.17-12.87a10.54,10.54,0,0,1-1.36.28c-1.46.19-6.53.56-10.41-2.93-.7-.63-1.51-1.4-2.36-2.2C250.2,11.1,242.93,4.22,236.4,4.39Z"/></g><path class="cls-3" d="M145.74,86.17s-9.43-.65-13.82-11.16c-2.72-6.51-9.74-18.31-15-17L105.22,68.26a42.51,42.51,0,0,1,10.24,15.23c3.21,8.81,15.85,16.22,15.85,16.22Z"/><path class="cls-1" d="M117.47,82.51a7.44,7.44,0,0,1,4-10.54c3.69-1.21,8.2,2.49,9.41,6.18a7,7,0,0,1-4.5,8.86C122.64,88.21,119.3,85.93,117.47,82.51Z"/><path class="cls-3" d="M119.15,80.07c.11,0,.31.18.6.58a9.57,9.57,0,0,0,1.29,1.5,3.06,3.06,0,0,0,1,.59,1.45,1.45,0,0,0,1.09,0,1.16,1.16,0,0,0,.64-.82,1.92,1.92,0,0,0-.43-1.28c-.17-.27-.37-.56-.55-.89a3.74,3.74,0,0,1-.46-1.15,2.36,2.36,0,0,1,0-.7,1.94,1.94,0,0,1,.17-.71,2.42,2.42,0,0,1,3.14-1.24,3.54,3.54,0,0,1,1.42,1,4.39,4.39,0,0,1,.7,1.14,5,5,0,0,1,.32.91c.13.51.14.8,0,.85s-.32-.17-.62-.57a8.64,8.64,0,0,0-1.28-1.51,2.59,2.59,0,0,0-1-.56,1,1,0,0,0-1,.17.74.74,0,0,0-.27.37.49.49,0,0,0,0,.21,1.13,1.13,0,0,0,0,.25,5.86,5.86,0,0,0,.83,1.5,5.17,5.17,0,0,1,.53,1.08,3.73,3.73,0,0,1,.14.68,2.8,2.8,0,0,1,0,.71,2.66,2.66,0,0,1-1.66,1.94,2.85,2.85,0,0,1-2.19-.12A3.9,3.9,0,0,1,120.19,83a5.25,5.25,0,0,1-1-2C119,80.41,119.05,80.11,119.15,80.07Z"/><path class="cls-3" d="M119.83,84.26c-.15-.17,1.67-2,4.06-4s4.46-3.52,4.6-3.34-1.66,2-4.06,4S120,84.44,119.83,84.26Z"/><path class="cls-3" d="M119.23,83.11c-.15-.18,1.49-1.81,3.66-3.64s4.06-3.18,4.21-3-1.5,1.81-3.67,3.64S119.38,83.28,119.23,83.11Z"/><g class="cls-4"><path class="cls-1" d="M107.31,68.44,118,59.17l.14,0c6.37,2.34,10.52,11.69,13.27,17.88.48,1.07.93,2.08,1.33,2.93,2.73,5.72,9.42,6.89,10,6.68l.29.4L131.62,97.3l-.15-.06a29.05,29.05,0,0,1-15.75-17.33c-1.64-5.29-8.14-11.22-8.21-11.28Zm10.81-8.7-10.07,8.71c1.16,1.08,6.61,6.37,8.15,11.31a28.5,28.5,0,0,0,15.32,17l10.64-9.52a8.86,8.86,0,0,1-1.36-.26c-1.42-.38-6.25-2-8.49-6.7-.4-.86-.85-1.87-1.33-2.94C128.29,71.24,124.22,62.09,118.12,59.74Z"/></g><path class="cls-3" d="M77.84,174.64a12,12,0,0,1-9.61,7.65c-4.79.85-13.81,3.81-13.7,7.53l5.14,9.46a29.34,29.34,0,0,1,11.81-4.62c6.42-.84,13.32-8.25,13.32-8.25Z"/><path class="cls-1" d="M71.12,193.16a5.15,5.15,0,0,1-6.52-4.25c-.26-2.67,2.92-5.16,5.59-5.42a4.86,4.86,0,0,1,5.3,4.37C75.74,190.53,73.7,192.44,71.12,193.16Z"/><path class="cls-3" d="M69.72,191.66c0-.09.17-.19.49-.32a5.85,5.85,0,0,0,1.2-.65,2.05,2.05,0,0,0,.56-.61,1,1,0,0,0,.15-.74.8.8,0,0,0-.46-.55,1.35,1.35,0,0,0-.93.1l-.68.24a2.76,2.76,0,0,1-.85.13,2,2,0,0,1-.48-.07,1.61,1.61,0,0,1-1-1,1.78,1.78,0,0,1-.09-.85,1.64,1.64,0,0,1,.29-.71,2.28,2.28,0,0,1,.92-.8,3.06,3.06,0,0,1,.88-.3,2.85,2.85,0,0,1,.65-.08c.37,0,.57,0,.58.1s-.16.19-.47.34a5.66,5.66,0,0,0-1.21.63,1.78,1.78,0,0,0-.53.6.7.7,0,0,0,0,.67.6.6,0,0,0,.2.24l.14.05a.5.5,0,0,0,.18,0,4.06,4.06,0,0,0,1.13-.33,3.69,3.69,0,0,1,.81-.2,2.57,2.57,0,0,1,.48,0,1.83,1.83,0,0,1,.47.14,1.87,1.87,0,0,1,1.06,1.41,1.92,1.92,0,0,1-.41,1.46,2.82,2.82,0,0,1-.92.77,3.7,3.7,0,0,1-1.54.39C69.94,191.78,69.74,191.73,69.72,191.66Z"/><path class="cls-3" d="M72.66,191.83a13.25,13.25,0,0,1-2.07-3.34,13.66,13.66,0,0,1-1.57-3.6,13.59,13.59,0,0,1,2.08,3.33A13.65,13.65,0,0,1,72.66,191.83Z"/><path class="cls-3" d="M71.79,192.06a11.09,11.09,0,0,1-1.91-3,11.25,11.25,0,0,1-1.39-3.28,10.93,10.93,0,0,1,1.9,3A11.12,11.12,0,0,1,71.79,192.06Z"/><g class="cls-4"><path class="cls-1" d="M60.1,197.9l-4.64-8.63,0-.08c2.54-3.94,9.47-5.34,14.06-6.26.79-.16,1.54-.31,2.18-.46a8.59,8.59,0,0,0,6-5.71l.31-.14,5.16,9.22-.06.09a20,20,0,0,1-14.06,8c-3.81.32-8.79,3.81-8.84,3.84Zm-4.24-8.61,4.36,8.1c.9-.61,5.29-3.49,8.85-3.79a19.71,19.71,0,0,0,13.75-7.78L78,177.21a7,7,0,0,1-.39.88,9.26,9.26,0,0,1-5.79,4.72l-2.18.45C65.14,184.17,58.36,185.53,55.86,189.29Z"/></g><path class="cls-3" d="M444,88.59a12,12,0,0,1-12.26.59c-4.39-2.11-13.44-5-15.52-1.88L414.83,98a29.38,29.38,0,0,1,12.29,3.16c5.7,3.07,15.63,1.08,15.63,1.08Z"/><path class="cls-1" d="M427.7,99.7a5.15,5.15,0,0,1-2.8-7.26c1.35-2.32,5.38-2.48,7.7-1.13A4.86,4.86,0,0,1,434.34,98C433,100.26,430.22,100.62,427.7,99.7Z"/><path class="cls-3" d="M427.45,97.66c0-.07.24,0,.58,0a6.23,6.23,0,0,0,1.35.19,2.12,2.12,0,0,0,.81-.18,1,1,0,0,0,.56-.51.83.83,0,0,0-.05-.72,1.4,1.4,0,0,0-.82-.46l-.69-.2a2.54,2.54,0,0,1-.77-.39,1.82,1.82,0,0,1-.34-.34,1.42,1.42,0,0,1-.23-.44,1.65,1.65,0,0,1,0-.93,1.7,1.7,0,0,1,.43-.75,1.82,1.82,0,0,1,.65-.41,2.48,2.48,0,0,1,1.21-.11,3.12,3.12,0,0,1,.89.27,4.18,4.18,0,0,1,.58.32c.3.2.44.35.41.43s-.24.06-.58,0a5.92,5.92,0,0,0-1.36-.19,1.74,1.74,0,0,0-.78.17.71.71,0,0,0-.41.53.54.54,0,0,0,0,.31.35.35,0,0,0,.08.13.36.36,0,0,0,.13.11,4,4,0,0,0,1.11.4,3.51,3.51,0,0,1,.78.31,2.55,2.55,0,0,1,.38.29,1.93,1.93,0,0,1,.3.39,1.84,1.84,0,0,1,0,1.76,2,2,0,0,1-1.18.95,2.79,2.79,0,0,1-1.2.08,3.56,3.56,0,0,1-1.47-.58C427.55,97.89,427.42,97.73,427.45,97.66Z"/><path class="cls-3" d="M429.73,99.51A13.27,13.27,0,0,1,430,95.6a13.08,13.08,0,0,1,.84-3.84,14.21,14.21,0,0,1-.27,3.92A13.06,13.06,0,0,1,429.73,99.51Z"/><path class="cls-3" d="M428.89,99.19a11.1,11.1,0,0,1,.22-3.56,10.93,10.93,0,0,1,.79-3.48,11.51,11.51,0,0,1-.22,3.57A11,11,0,0,1,428.89,99.19Z"/><g class="cls-4"><path class="cls-1" d="M416,97.11l1.26-9.71.1,0c4.36-1.72,10.8,1.2,15.07,3.13.73.33,1.42.64,2,.9a8.6,8.6,0,0,0,8.21-1.13l.33.07-1.2,10.5-.1,0a20,20,0,0,1-16.09-1.71c-3.28-2-9.36-2-9.42-2Zm1.58-9.47-1.19,9.13c1.08,0,6.33.25,9.39,2.09a19.73,19.73,0,0,0,15.71,1.71l1.11-9.8a7.35,7.35,0,0,1-.82.49,9.23,9.23,0,0,1-7.46.44c-.6-.25-1.3-.57-2-.9C428.11,88.91,421.81,86.05,417.58,87.64Z"/></g></g><g id="Floor"><path class="cls-6" d="M452.86,404.8c0,.15-101.38.26-226.42.26S0,405,0,404.8s101.36-.26,226.44-.26S452.86,404.66,452.86,404.8Z"/></g><g id="Character"><path class="cls-6" d="M203.62,185.33a55.35,55.35,0,0,1-3.57-10.25,18.44,18.44,0,0,1,.63-10.69,11.23,11.23,0,0,1,7.83-6.9c2.19-.43,4.54-.06,6.64-.83,2.43-.9,4-3.13,5.94-4.9a18.86,18.86,0,0,1,10.85-4.94,11.3,11.3,0,0,1,6.22.89,6.32,6.32,0,0,1,3.57,4.93,30,30,0,0,1,7.6-1.82,10.07,10.07,0,0,1,7.32,2.16c2,1.74,2.87,4.76,1.69,7.09a5,5,0,0,1,6.44,1.81,6.46,6.46,0,0,1-.41,7,12,12,0,0,1-7.19,4.13c-2.44.33-5.28.57-7.61-.22"/><path class="cls-7" d="M209.59,255.77l35-2.79c.22-4.09-.07-19.9-.07-19.9s14.56-2.27,14.74-16.83-2.34-48-2.34-48h0a50.61,50.61,0,0,0-50.86,6.4l-2.16,1.66Z"/><path class="cls-8" d="M244.55,232.87a34,34,0,0,1-19-5.4s4.49,10.48,19,9.17Z"/><path class="cls-7" d="M205.7,191.38c-.24-.1-10-3-9.68,7s10.25,7.58,10.25,7.3S205.7,191.38,205.7,191.38Z"/><path class="cls-8" d="M203.11,202s-.17.13-.46.27a1.71,1.71,0,0,1-1.29.07c-1.07-.35-2-2-2.11-3.79a5.8,5.8,0,0,1,.4-2.5,2,2,0,0,1,1.27-1.37.9.9,0,0,1,1,.44c.14.28.08.48.13.49s.21-.17.12-.58a1.12,1.12,0,0,0-.41-.61,1.31,1.31,0,0,0-1-.22,2.43,2.43,0,0,0-1.76,1.6,5.78,5.78,0,0,0-.51,2.79c.12,2,1.21,3.85,2.66,4.22a1.87,1.87,0,0,0,1.58-.31C203.1,202.24,203.15,202,203.11,202Z"/><path class="cls-6" d="M252.15,190.81a2.08,2.08,0,0,1-2,2.1A2,2,0,0,1,248,191a2.08,2.08,0,0,1,2-2.1A2,2,0,0,1,252.15,190.81Z"/><path class="cls-6" d="M254.17,188.73c-.26.27-1.83-.89-4.07-.89s-3.88,1.13-4.12.85c-.12-.12.14-.61.86-1.13a5.72,5.72,0,0,1,3.3-1,5.56,5.56,0,0,1,3.24,1.05C254.06,188.12,254.3,188.61,254.17,188.73Z"/><path class="cls-6" d="M230.15,190.81a2.08,2.08,0,0,1-2,2.1A2,2,0,0,1,226,191a2.08,2.08,0,0,1,2-2.1A2,2,0,0,1,230.15,190.81Z"/><path class="cls-6" d="M232.17,189.15c-.26.27-1.83-.9-4.07-.89s-3.88,1.12-4.12.85.14-.61.86-1.13a5.72,5.72,0,0,1,3.3-1,5.49,5.49,0,0,1,3.24,1C232.06,188.54,232.3,189,232.17,189.15Z"/><path class="cls-6" d="M240.29,205.74a15.59,15.59,0,0,1,3.64-.65c.57-.06,1.11-.17,1.21-.56a3,3,0,0,0-.38-1.7l-1.69-4.35c-2.35-6.19-4-11.29-3.8-11.38s2.36,4.85,4.7,11.05c.57,1.53,1.11,3,1.62,4.38a3.29,3.29,0,0,1,.3,2.24,1.44,1.44,0,0,1-.94.84,4.12,4.12,0,0,1-1,.13A14.4,14.4,0,0,1,240.29,205.74Z"/><path class="cls-6" d="M233.71,207.29c.36,0,.37,2.41,2.45,4.14s4.66,1.45,4.68,1.79c0,.15-.58.47-1.67.5a6,6,0,0,1-3.91-1.36,5.31,5.31,0,0,1-1.9-3.46C233.27,207.88,233.54,207.28,233.71,207.29Z"/><path class="cls-6" d="M253.35,184.79c-.4.51-1.94,0-3.79,0s-3.43.34-3.79-.19c-.16-.26.09-.77.78-1.25a5.49,5.49,0,0,1,6.1.19C253.31,184,253.52,184.54,253.35,184.79Z"/><path class="cls-6" d="M229.26,181.06c-.25.27-.82.16-1.57,0a14.35,14.35,0,0,0-5.54-.18c-.76.1-1.34.17-1.57-.12s0-.9.78-1.54a5.86,5.86,0,0,1,7.23.24C229.32,180.16,229.5,180.81,229.26,181.06Z"/><path class="cls-6" d="M257.65,172.72a34.26,34.26,0,0,1-21.24-1.08c-7.55-2.86-16.1-3.77-17.8-2.14s-1.34,9.07-8.24,11.95c0,0,1.92,14.07-3.76,14.14s-4.37-22.16-4.37-22.16l13.09-8.12L230.07,161l14.08-1.42,13.5,2.7Z"/><path class="cls-7" d="M295.26,289.25s25.37,26.11,34.3,22.23c24.31-10.54,44.07-32.74,50.86-40.71.29-1.5.58-3.27.83-5.37A16,16,0,0,0,381,260a25.09,25.09,0,0,0-2.15-6.46c-1.11-1.79.49-4,2.24-3.21s6,5.45,6.89,12.12a2.73,2.73,0,0,0,3.78,1.73c4.4-1.45,19.35-7.26,22-7.87,2.37-.55,5.2-.42,3.62,1.31s-12.6,8.18-12.6,8.18,14.28-8.74,15.46-6.6c.81,1.48-2.2,4.89-12.22,9.73,0,0,11.82-7.11,13.84-6.88,4.54.53-9.6,9.22-9.6,9.22,10-6,9.49-6.4,10.57-5.24.81.87-.94,2.87-5.85,6.87-4,3.25-7.46,7.41-13.26,12.68h0s-60,83.45-97.75,57.83c-20.35-13.8-25.94-20.77-37.49-31.23"/><path class="cls-8" d="M406.31,275c.15.25,3.28-1.47,7-3.84s6.6-4.48,6.43-4.72-3.3,1.48-7,3.83S406.17,274.75,406.31,275Z"/><path class="cls-8" d="M403.6,271.42c.14.26,3.59-1.38,7.69-3.66s7.31-4.33,7.17-4.59-3.58,1.39-7.69,3.66S403.46,271.17,403.6,271.42Z"/><path class="cls-8" d="M400.81,267.69c.14.25,3.42-1.24,7.33-3.35s7-4,6.83-4.27-3.42,1.24-7.33,3.34S400.67,267.43,400.81,267.69Z"/><path class="cls-7" d="M145.12,310S132.34,344,122.6,344.07c-26.5.08-53.49-12.35-62.91-16.94-.86-1.25-1.84-2.75-2.91-4.58a16,16,0,0,1-1.9-5.09,25.21,25.21,0,0,1-.62-6.78c.3-2.08-2-3.42-3.34-2s-3.32,7.41-1.46,13.87a2.72,2.72,0,0,1-2.77,3.09c-4.61.44-20.63,1.11-23.32,1.61-2.39.45-4.93,1.7-2.79,2.66,1.56.69,8.68,1.67,12.46,2.15-4.59-.53-14.28-1.41-14.44.44-.1,1.08,1.6,2.26,5.79,3.08-2.85-.19-5.44-.23-6.13.18-4,2.3,12.49,4.6,12.49,4.6-11.54-1.51-11.27-2.06-11.79-.57-.39,1.12,2,2.25,8.11,3.95,5,1.38,9.8,3.8,17.23,6.31,0,0,88.42,52.42,112.74,13.83,13.1-20.8,15.44-29.42,21.83-43.63Z"/><path class="cls-8" d="M37.67,341.39c0,.29-3.59,0-8-.71s-7.84-1.47-7.78-1.75,3.62,0,8,.71S37.7,341.1,37.67,341.39Z"/><path class="cls-8" d="M38.72,337c0,.29-3.84.17-8.51-.28s-8.44-1-8.41-1.33,3.84-.17,8.51.28S38.74,336.73,38.72,337Z"/><path class="cls-8" d="M39.78,332.48c0,.29-3.63.23-8.06-.13s-8-.89-8-1.18,3.63-.24,8.06.13S39.8,332.19,39.78,332.48Z"/><path class="cls-9" d="M325.18,311.55l-41.83-46.67c-11.65-11.45-17.87-14.87-34.08-16.79-2.65-.31-4.76-.51-6.27-.7a62,62,0,0,1-37.33,0h0c-5.77.24-10.55,2-15.45,3-15.46,3-26.58,14.21-29.67,24.61h0l-34.87,68.11,29.45,24.74L182,325.1l1.64,45.45-1.67,34,103.25.29-4.69-79.72,27.79,22.62Z"/><path class="cls-6" d="M182.5,296.55a6.37,6.37,0,0,1,.13,1.51c0,1,.07,2.39.1,4.13.05,3.49.07,8.3,0,13.62s-.09,10.14-.17,13.63c0,1.74-.09,3.15-.13,4.13a6.21,6.21,0,0,1-.15,1.51,6,6,0,0,1-.14-1.51c0-1-.07-2.39-.1-4.13-.05-3.49-.07-8.31,0-13.63s.09-10.13.17-13.62c0-1.74.09-3.15.14-4.13A5.64,5.64,0,0,1,182.5,296.55Z"/><path class="cls-6" d="M282.31,355a15.14,15.14,0,0,1-.3-2.34c-.15-1.63-.34-3.79-.58-6.4-.45-5.41-1-12.88-1.6-21.14s-1.08-15.74-1.4-21.16c-.13-2.62-.25-4.78-.33-6.42a14.16,14.16,0,0,1,0-2.36,14.2,14.2,0,0,1,.31,2.34c.15,1.63.34,3.79.57,6.4.45,5.41,1,12.88,1.61,21.15s1.07,15.74,1.39,21.15c.14,2.62.25,4.78.34,6.42A14.68,14.68,0,0,1,282.31,355Z"/><g class="cls-10"><path class="cls-1" d="M297.62,280.58c0,.15-31.33.26-70,.26s-70-.11-70-.26,31.33-.26,70-.26S297.62,280.44,297.62,280.58Z"/></g><g class="cls-10"><path class="cls-1" d="M308.45,322.07c0,.14-38.18.26-85.26.26s-85.27-.12-85.27-.26,38.17-.26,85.27-.26S308.45,321.92,308.45,322.07Z"/></g><g class="cls-10"><path class="cls-1" d="M283.15,369.37c0,.14-22.17.26-49.52.26s-49.52-.12-49.52-.26,22.17-.26,49.52-.26S283.15,369.23,283.15,369.37Z"/></g><g class="cls-10"><path class="cls-1" d="M195.19,404.8c-.14,0-.26-34.84-.26-77.81s.12-77.81.26-77.81.26,34.83.26,77.81S195.34,404.8,195.19,404.8Z"/></g><g class="cls-10"><path class="cls-1" d="M255,404.8s0-.13,0-.4,0-.68,0-1.18c0-1.07,0-2.59,0-4.55,0-4-.08-9.68-.13-16.72-.13-14.14-.31-33.63-.5-55.16s-.33-41.06-.34-55.18c0-7,0-12.75,0-16.72,0-1.95,0-3.48,0-4.55,0-.5,0-.89,0-1.18a2,2,0,0,1,0-.4,3,3,0,0,1,0,.4c0,.29,0,.68,0,1.18,0,1.07,0,2.6.05,4.55,0,4,.08,9.68.13,16.72.13,14.14.31,33.63.5,55.17s.33,41.05.34,55.17c0,7,0,12.75,0,16.72,0,2,0,3.48,0,4.55,0,.5,0,.89,0,1.18A2,2,0,0,1,255,404.8Z"/></g><g class="cls-10"><path class="cls-1" d="M297.36,338.3c-.14,0-.26-12.6-.26-28.14s.12-28.15.26-28.15.26,12.6.26,28.15S297.51,338.3,297.36,338.3Z"/></g><g class="cls-10"><path class="cls-1" d="M148.35,349.83c-.15,0-.26-11.89-.26-26.55s.11-26.54.26-26.54.26,11.88.26,26.54S148.49,349.83,148.35,349.83Z"/></g><polyline class="cls-9" points="201.81 248.76 207.51 236.78 226.18 249.93 244.6 237.56 251.08 248.08 232.63 260.07 220.28 260.07 201.81 250.15"/><path class="cls-6" d="M226.18,249.93s-.12.06-.35.11a3.62,3.62,0,0,0-1,.26,5.9,5.9,0,0,0-2.78,2.36,29.06,29.06,0,0,0-2.57,5c-.44,1-.88,2-1.44,3.06a11,11,0,0,1-2.15,3l-.18.17-.18-.18-1.06-1.1c-3.7-3.88-6.85-7.57-9-10.31-1.1-1.37-2-2.5-2.54-3.29a8.56,8.56,0,0,1-.86-1.26,9.1,9.1,0,0,1,1,1.14l2.66,3.17c2.27,2.68,5.45,6.32,9.14,10.19l1.05,1.1h-.36a10.82,10.82,0,0,0,2.06-2.87c.55-1,1-2.05,1.45-3a28.13,28.13,0,0,1,2.71-5,5.88,5.88,0,0,1,3-2.33,3.07,3.07,0,0,1,1-.18A1.42,1.42,0,0,1,226.18,249.93Z"/><path class="cls-6" d="M250.75,248.31a7.55,7.55,0,0,1-.91,1.2c-.63.74-1.55,1.8-2.75,3.06a73.66,73.66,0,0,1-10.29,8.83c-.81.58-1.62,1.12-2.4,1.63l-.36.24,0-.44a23.4,23.4,0,0,0-1.52-6.14,16,16,0,0,0-2.47-4.43,6.17,6.17,0,0,0-2.65-2c-.74-.26-1.19-.28-1.18-.34a1.11,1.11,0,0,1,.32,0,3.17,3.17,0,0,1,.92.15,6.12,6.12,0,0,1,2.85,1.95,15.55,15.55,0,0,1,2.64,4.48,23.75,23.75,0,0,1,1.61,6.28l-.4-.2c.77-.51,1.57-1.05,2.38-1.62a85.82,85.82,0,0,0,10.33-8.67c1.23-1.22,2.19-2.23,2.86-2.93A8.82,8.82,0,0,1,250.75,248.31Z"/><path class="cls-6" d="M233.28,404.8s0-.13,0-.39,0-.68,0-1.17c0-1.06,0-2.57-.06-4.5,0-3.93-.11-9.56-.2-16.52-.2-14-.64-33.22-1.62-54.49s-2.3-40.51-3.38-54.42c-.56-6.93-1-12.55-1.32-16.47-.15-1.92-.27-3.43-.36-4.48,0-.49-.06-.88-.07-1.16a1.71,1.71,0,0,1,0-.4,2,2,0,0,1,.06.39c0,.29.07.67.13,1.16.11,1.05.26,2.55.45,4.47.39,3.89.9,9.51,1.49,16.46,1.17,13.91,2.55,33.15,3.53,54.43s1.36,40.55,1.47,54.51c.06,7,.07,12.62,0,16.52,0,1.93,0,3.44,0,4.5,0,.49,0,.88,0,1.17A1.93,1.93,0,0,1,233.28,404.8Z"/><g class="cls-11"><path d="M225.74,250c2.27,1.29,3.11,4.17,3.12,6.77s-.61,5.2-.39,7.79a4.45,4.45,0,0,0,1.74,3.54c1.58.95,3.59.06,5.21-.83,3.48-1.91,7-3.86,9.85-6.64a14.25,14.25,0,0,0,4-10.65c-4.8,5.15-9.64,8.25-14.89,12.32a21.74,21.74,0,0,0-2.64-7.79c-1.36-2.36-3.29-4.8-6-4.51"/></g><g class="cls-11"><path d="M208.59,255.9c1.78,3.46,3.63,7,6.68,9.46,1.35,1.08,3.33,1.88,4.74.88,1.13-.8,1.32-2.37,1.41-3.76.24-3.52,1.28-7.58,1.52-11.1-2.79,3.15-4.32,8.69-7.26,12.51-3-1.89-4.73-5.12-6.89-7.93"/></g><g class="cls-11"><path d="M299.42,340q7-12.94,13.93-25.9c-4.12.4-6.89,4.3-9,7.85s-4.7,7.52-8.79,8.22c-2.84.49-5.68-.78-8.16-2.25s-4.88-3.23-7.7-3.86Z"/></g><g class="cls-11"><path d="M177.06,333s-9.7,10.2-16.24,11.7a23.72,23.72,0,0,1-19.12-4,3.56,3.56,0,0,0-1.45-.76,1.09,1.09,0,0,0-1.27.78c-.06.48.33.89.68,1.23q10,9.3,20.84,17.71Z"/></g><g class="cls-11"><path d="M222.74,263.38q-5.52,44.08-7.21,88.53c-.17,4.63-.29,9.41,1.36,13.74,1.92,5,6,8.89,10,12.56,1.69,1.56,4,3.24,6.07,2.26a5.68,5.68,0,0,0,1.94-1.81c2.5-3.23,4.84-6.71,5.77-10.68,2.9-12.46-8.86-24.79-6.21-37.31"/></g><path class="cls-12" d="M221.79,253.14l8.83-.22c.74,1.48,1.67,3.35,2.36,4.75l-2.83,7.94h-7.21l-3.82-7.11Z"/><polygon class="cls-12" points="222.94 265.61 218.81 366.66 230.81 379.72 241.9 363.95 230.15 265.61 222.94 265.61"/><path class="cls-6" d="M229.73,265.75a19.49,19.49,0,0,1-3.34,0,17.69,17.69,0,0,1-3.33-.12,8,8,0,0,1,3.34-.4A7.78,7.78,0,0,1,229.73,265.75Z"/><path class="cls-6" d="M231.63,254.62a5.58,5.58,0,0,1-1.12,1.53,24.07,24.07,0,0,1-3.32,3.14,25.25,25.25,0,0,1-3.81,2.51,5.67,5.67,0,0,1-1.75.74c-.07-.14,2.49-1.46,5.24-3.65S231.51,254.52,231.63,254.62Z"/><path class="cls-6" d="M231.24,275.47a74.83,74.83,0,0,1-9,8.92,38.73,38.73,0,0,1,4.32-4.64A39.26,39.26,0,0,1,231.24,275.47Z"/><path class="cls-1" d="M231.85,282.76A48.54,48.54,0,0,1,227,287.9a48.57,48.57,0,0,1-5.18,4.78,45.08,45.08,0,0,1,4.82-5.15A45.11,45.11,0,0,1,231.85,282.76Z"/><path class="cls-6" d="M233,289.47a64.24,64.24,0,0,1-5.61,5.95,63.45,63.45,0,0,1-6,5.57A131.37,131.37,0,0,1,233,289.47Z"/><path class="cls-1" d="M233.78,296.56a76.15,76.15,0,0,1-6.13,6.45,77.2,77.2,0,0,1-6.49,6.09,75.87,75.87,0,0,1,6.12-6.46A77.12,77.12,0,0,1,233.78,296.56Z"/><path class="cls-6" d="M234.53,303.68a91.92,91.92,0,0,1-6.62,6.95,85.34,85.34,0,0,1-7,6.57,90.79,90.79,0,0,1,6.62-6.94A88.89,88.89,0,0,1,234.53,303.68Z"/><path class="cls-1" d="M235.43,310.66c.1.1-3.17,3.51-7.29,7.61s-7.56,7.35-7.66,7.25,3.16-3.51,7.29-7.62S235.32,310.56,235.43,310.66Z"/><path class="cls-6" d="M236.18,317.78c.1.1-3.41,3.75-7.83,8.15s-8.09,7.89-8.19,7.79,3.4-3.75,7.82-8.16S236.08,317.68,236.18,317.78Z"/><path class="cls-1" d="M237.06,324.77c.1.11-3.65,4-8.37,8.69s-8.63,8.43-8.73,8.33,3.64-4,8.37-8.69S237,324.67,237.06,324.77Z"/><path class="cls-6" d="M237.61,332.09c.1.11-3.88,4.23-8.89,9.22s-9.15,8.95-9.26,8.85,3.88-4.23,8.89-9.22S237.51,332,237.61,332.09Z"/><path class="cls-1" d="M238.58,339c.1.11-4.1,4.45-9.38,9.72s-9.66,9.45-9.76,9.34,4.1-4.45,9.39-9.71S238.48,338.89,238.58,339Z"/><path class="cls-6" d="M240.11,345.34c.1.1-4.6,5-10.49,10.82s-10.76,10.55-10.86,10.45,4.59-4.94,10.49-10.82S240,345.24,240.11,345.34Z"/><path class="cls-1" d="M222.57,370.75c-.1-.1,3.87-4.26,8.88-9.28s9.14-9,9.25-8.92-3.88,4.26-8.88,9.28S222.67,370.86,222.57,370.75Z"/><path class="cls-6" d="M227.16,375.36c-.1-.1,3-3.54,7-7.69a101.27,101.27,0,0,1,7.34-7.33,103.26,103.26,0,0,1-7,7.69A99,99,0,0,1,227.16,375.36Z"/><path class="cls-1" d="M230.35,268.7a30.07,30.07,0,0,1-3.82,4.16,31.31,31.31,0,0,1-4.19,3.79,30.07,30.07,0,0,1,3.82-4.16A32,32,0,0,1,230.35,268.7Z"/><path class="cls-9" d="M126.55,342.89c-1.46-.14-2-2.11-1.54-3.51s1.57-2.51,2-3.9c.27-.8.39-1.75,1.08-2.22a2.18,2.18,0,0,1,2.5.1c4.07,3.49,7.07,6.88,11.51,10.64,4.28,3.63,8.89,8.28,13.41,11.61,2.54,1.88,5.65,3.82,6,7A5.07,5.07,0,0,1,157,368c-2.58.17-4.81-1.66-6.73-3.38L126.12,343"/><path class="cls-6" d="M159.89,359.23a10.91,10.91,0,0,1-1.24-.9c-.78-.59-1.93-1.42-3.37-2.44a48.82,48.82,0,0,1-4.85-3.83L144.84,347c-4-3.63-7.52-6.94-10.08-9.35l-3-2.87a9,9,0,0,1-1.05-1.1,8,8,0,0,1,1.19,1l3.13,2.76c2.62,2.34,6.21,5.59,10.17,9.22l5.55,5.12a55.59,55.59,0,0,0,4.76,3.9c1.41,1,2.53,1.93,3.28,2.57A7.26,7.26,0,0,1,159.89,359.23Z"/><path class="cls-6" d="M157.23,361.56a8.87,8.87,0,0,1-1.3-.74c-.81-.51-2-1.26-3.39-2.22-2.84-1.92-6.69-4.69-10.77-8s-7.63-6.42-10.12-8.77c-1.25-1.18-2.25-2.14-2.91-2.83a7.57,7.57,0,0,1-1-1.1,8.26,8.26,0,0,1,1.15.95l3,2.71c2.56,2.28,6.13,5.37,10.2,8.63s7.88,6.07,10.66,8.06l3.3,2.36A9.12,9.12,0,0,1,157.23,361.56Z"/><g class="cls-10"><path class="cls-1" d="M139.42,341.71a22.48,22.48,0,0,1-3.19,3.55,21.78,21.78,0,0,1-3.56,3.18,22.48,22.48,0,0,1,3.19-3.55A21.89,21.89,0,0,1,139.42,341.71Z"/></g><g class="cls-10"><path class="cls-1" d="M155.1,355.75a25.19,25.19,0,0,1-3.45,3.68,24.16,24.16,0,0,1-3.81,3.3,48.57,48.57,0,0,1,7.26-7Z"/></g><g class="cls-4"><path class="cls-1" d="M214.76,242.42a43.9,43.9,0,0,1-3.41,5.77,42.3,42.3,0,0,1-3.84,5.48,43.46,43.46,0,0,1,3.41-5.76A44.09,44.09,0,0,1,214.76,242.42Z"/></g><g class="cls-4"><path class="cls-1" d="M244.44,254a43.9,43.9,0,0,1-3-5.91A42.43,42.43,0,0,1,238.9,242a41.85,41.85,0,0,1,3,5.91A40.62,40.62,0,0,1,244.44,254Z"/></g><path class="cls-9" d="M309.68,345.38a3.18,3.18,0,0,1-3.32,1.89c-1.46-.16-2.79-1-4.26-1.12-.83-.08-1.78,0-2.4-.56a2.66,2.66,0,0,1-.45-2.45c.93-5.53,3.93-10.48,7.15-15.07s6.75-9,9-14.17c1.26-2.9,2.46-6.37,5.45-7.4a5.07,5.07,0,0,1,6.25,3.2c.75,2.47-.54,5.06-1.79,7.32l-15.63,28.36"/><path class="cls-6" d="M319.68,311.66a9.14,9.14,0,0,1-.47,1.4c-.33.89-.84,2.17-1.48,3.75-1.29,3.14-3.16,7.45-5.37,12.14s-4.37,8.86-6,11.85c-.8,1.5-1.47,2.7-1.95,3.52a8.2,8.2,0,0,1-.79,1.25,8.3,8.3,0,0,1,.61-1.35l1.81-3.59c1.53-3,3.62-7.23,5.84-11.91s4.13-9,5.5-12.06L319,313A8.26,8.26,0,0,1,319.68,311.66Z"/><path class="cls-6" d="M318,306.12a8.27,8.27,0,0,1-.76,1.34L315.07,311c-1.83,3-4.3,7.23-6.88,12s-4.76,9.1-6.31,12.28l-1.82,3.77a10.34,10.34,0,0,1-.72,1.36,8.07,8.07,0,0,1,.53-1.45c.38-.91.95-2.22,1.68-3.84,1.46-3.22,3.6-7.62,6.18-12.36s5.12-8.94,7-11.91c1-1.49,1.75-2.69,2.31-3.5A8.75,8.75,0,0,1,318,306.12Z"/><g class="cls-4"><path class="cls-1" d="M313.16,338.28a17.58,17.58,0,0,1-5.42-1.69,17.38,17.38,0,0,1-4.88-2.91c.08-.13,2.25,1.17,5.09,2.44S313.2,338.13,313.16,338.28Z"/></g><g class="cls-4"><path class="cls-1" d="M325.42,317.62a47,47,0,0,1-5.3-3A46.32,46.32,0,0,1,315,311.3a28.65,28.65,0,0,1,5.43,2.84A29,29,0,0,1,325.42,317.62Z"/></g></g><g id="Stars"><polygon class="cls-12" points="341.13 0 339.13 3.65 335.49 5.64 339.13 7.63 341.13 11.28 343.12 7.63 346.77 5.64 343.12 3.65 341.13 0"/><polygon class="cls-12" points="412.59 216.27 410.59 219.92 406.95 221.91 410.59 223.91 412.59 227.55 414.58 223.91 418.23 221.91 414.58 219.92 412.59 216.27"/><polygon class="cls-12" points="90.48 11.33 88.48 14.98 84.84 16.97 88.48 18.96 90.48 22.61 92.47 18.96 96.12 16.97 92.47 14.98 90.48 11.33"/><polygon class="cls-12" points="386.34 115.48 385.11 117.72 382.88 118.95 385.11 120.18 386.34 122.42 387.57 120.18 389.8 118.95 387.57 117.72 386.34 115.48"/><polygon class="cls-12" points="223.75 51.9 222.52 54.14 220.28 55.37 222.52 56.59 223.75 58.83 224.98 56.59 227.21 55.37 224.98 54.14 223.75 51.9"/><polygon class="cls-12" points="153.92 109.59 152.82 111.58 150.84 112.67 152.82 113.76 153.92 115.75 155.01 113.76 157 112.67 155.01 111.58 153.92 109.59"/><polygon class="cls-12" points="285.82 205.52 284.73 207.51 282.74 208.6 284.73 209.69 285.82 211.68 286.92 209.69 288.9 208.6 286.92 207.51 285.82 205.52"/><polygon class="cls-12" points="94 224.3 92.91 226.3 90.92 227.38 92.91 228.47 94 230.47 95.09 228.47 97.08 227.38 95.09 226.3 94 224.3"/></g><g id="Floating_Money" data-name="Floating Money"><path class="cls-9" d="M48.86,55.1s6-3.17,12.72,1.63c4.14,3,12.93,7.56,15.64,4.76l3.33-10.74a30.73,30.73,0,0,1-12.07-5.48c-5.31-4.2-15.89-4-15.89-4Z"/><g class="cls-13"><path class="cls-14" d="M67.62,46.64a5.38,5.38,0,0,1,1.57,8c-1.81,2.13-6,1.57-8.13-.24a5.07,5.07,0,0,1-.59-7.15C62.28,45.09,65.2,45.23,67.62,46.64Z"/></g><path class="cls-9" d="M67.51,48.78c-.05.07-.26,0-.59-.13a6.26,6.26,0,0,0-1.36-.43,1.93,1.93,0,0,0-.86,0,1.06,1.06,0,0,0-.67.42.86.86,0,0,0-.08.75,1.43,1.43,0,0,0,.76.62c.2.1.43.2.67.34a2.67,2.67,0,0,1,.72.53,2,2,0,0,1,.29.42,1.46,1.46,0,0,1,.16.5,1.63,1.63,0,0,1-.14,1,1.75,1.75,0,0,1-.57.69,1.82,1.82,0,0,1-.75.3,2.61,2.61,0,0,1-1.27-.1,3.61,3.61,0,0,1-.86-.44,4,4,0,0,1-.54-.44c-.27-.26-.39-.44-.34-.51s.25,0,.59.12a7.25,7.25,0,0,0,1.36.44,2,2,0,0,0,.84,0,.77.77,0,0,0,.52-.47.51.51,0,0,0,0-.32.66.66,0,0,0,0-.15.75.75,0,0,0-.12-.14,4.21,4.21,0,0,0-1.07-.61,3.38,3.38,0,0,1-.74-.47,2,2,0,0,1-.34-.36,1.55,1.55,0,0,1-.24-.46A1.89,1.89,0,0,1,63.13,48a2,2,0,0,1,1.4-.76,2.75,2.75,0,0,1,1.24.13,3.72,3.72,0,0,1,1.41.87C67.45,48.52,67.56,48.71,67.51,48.78Z"/><path class="cls-9" d="M65.5,46.46a13.9,13.9,0,0,1-1,4A14,14,0,0,1,63,54.24a14.77,14.77,0,0,1,1-4A14.25,14.25,0,0,1,65.5,46.46Z"/><path class="cls-9" d="M66.31,46.94a11.6,11.6,0,0,1-.87,3.62A11.67,11.67,0,0,1,64,54a12.1,12.1,0,0,1,.88-3.62A11.81,11.81,0,0,1,66.31,46.94Z"/><g class="cls-4"><path class="cls-14" d="M79.2,51.43,76.13,61.2l-.1,0c-4.81,1-10.91-3.2-14.94-6-.7-.48-1.36-.93-1.93-1.3a8.94,8.94,0,0,0-8.65-.33l-.33-.14,3.14-10.58.11,0a20.93,20.93,0,0,1,16.25,4.69c3,2.62,9.26,3.81,9.32,3.82Zm-3.35,9.46,2.89-9.18c-1.12-.22-6.48-1.41-9.29-3.86A20.58,20.58,0,0,0,53.6,43.23l-2.94,9.88a7.77,7.77,0,0,1,.94-.35,9.66,9.66,0,0,1,7.76.9c.57.37,1.23.82,1.93,1.3C65.25,57.67,71.21,61.75,75.85,60.89Z"/></g><path class="cls-9" d="M424.89,141.63s-.07,11.66-12.66,17.88c-7.79,3.85-21.77,13.42-19.73,19.74L406,192.9s7.17-9.09,17.94-13.8c10.59-4.64,18.73-20.77,18.73-20.77Z"/><g class="cls-13"><path class="cls-14" d="M422.59,176.71a9.18,9.18,0,0,1-13.28-4c-1.77-4.45,2.43-10.3,6.88-12.07a8.67,8.67,0,0,1,11.25,4.85C429.21,169.9,426.66,174.19,422.59,176.71Z"/></g><path class="cls-9" d="M419.45,174.82c-.06-.13.2-.39.67-.78a10.53,10.53,0,0,0,1.75-1.71,4,4,0,0,0,.65-1.32,1.91,1.91,0,0,0-.11-1.35,1.47,1.47,0,0,0-1.07-.72,2.42,2.42,0,0,0-1.54.64c-.32.23-.65.49-1,.75a4.83,4.83,0,0,1-1.39.65,3.56,3.56,0,0,1-.86.11,2.91,2.91,0,0,1-.88-.16,2.87,2.87,0,0,1-1.33-1,2.94,2.94,0,0,1-.58-1.42,3,3,0,0,1,.13-1.36,4.43,4.43,0,0,1,1.18-1.83,6,6,0,0,1,1.36-1,5.74,5.74,0,0,1,1.09-.46c.61-.2,1-.23,1-.11s-.18.4-.65.81a10.74,10.74,0,0,0-1.76,1.69,3.4,3.4,0,0,0-.61,1.29,1.28,1.28,0,0,0,.29,1.16.93.93,0,0,0,.47.3.77.77,0,0,0,.26,0,.89.89,0,0,0,.31-.06,6.92,6.92,0,0,0,1.78-1.13,6.07,6.07,0,0,1,1.29-.74,4.3,4.3,0,0,1,.82-.22,3,3,0,0,1,.89,0,3.31,3.31,0,0,1,2.5,1.89,3.44,3.44,0,0,1,0,2.71,4.79,4.79,0,0,1-1.19,1.77,6.32,6.32,0,0,1-2.44,1.43C419.89,174.94,419.51,175,419.45,174.82Z"/><path class="cls-9" d="M424.57,173.66c-.21.19-2.54-1.9-5.21-4.69s-4.68-5.2-4.48-5.4,2.54,1.9,5.22,4.69S424.77,173.46,424.57,173.66Z"/><path class="cls-9" d="M423.19,174.49c-.2.2-2.34-1.7-4.76-4.22s-4.23-4.75-4-4.94,2.34,1.69,4.76,4.22S423.4,174.29,423.19,174.49Z"/><g class="cls-4"><path class="cls-14" d="M406.07,190.31l-12.25-12.46.06-.18c2.38-8,13.57-13.86,21-17.73,1.27-.67,2.48-1.3,3.5-1.87,6.83-3.79,7.74-12.12,7.44-12.78l.47-.38,13.43,13.22-.06.19a35.77,35.77,0,0,1-20.1,20.73c-6.38,2.44-13.17,10.9-13.24,11Zm-11.56-12.63L406,189.39c1.23-1.5,7.32-8.63,13.28-10.91A35.19,35.19,0,0,0,439,158.3L426.44,146a12,12,0,0,1-.22,1.69c-.36,1.78-2,7.85-7.58,11-1,.57-2.23,1.2-3.51,1.87C407.87,164.27,396.94,170,394.51,177.68Z"/></g><path class="cls-9" d="M431.29,43.59s-7.41,1.64-13.18-5.46c-3.56-4.39-11.65-11.88-15.37-9.68L396,39a34.14,34.14,0,0,1,11.35,9.4c4.47,6.06,15.88,8.89,15.88,8.89Z"/><g class="cls-13"><path class="cls-14" d="M408.69,47.19a6,6,0,0,1,.65-9c2.57-1.76,6.88.06,8.65,2.63a5.64,5.64,0,0,1-1.46,7.84C414,50.41,410.88,49.41,408.69,47.19Z"/></g><path class="cls-9" d="M409.43,44.93c.08-.06.28.06.6.31a7.14,7.14,0,0,0,1.33.86,2.64,2.64,0,0,0,.94.22,1.17,1.17,0,0,0,.83-.26.93.93,0,0,0,.31-.78,1.57,1.57,0,0,0-.63-.89c-.19-.17-.41-.34-.62-.56a3.09,3.09,0,0,1-.62-.78,2.1,2.1,0,0,1-.19-.53,1.93,1.93,0,0,1,1.22-2.15,2.18,2.18,0,0,1,.89-.11,2.85,2.85,0,0,1,1.33.49,3.84,3.84,0,0,1,.8.72,3.79,3.79,0,0,1,.45.63c.22.36.29.59.22.64s-.28-.05-.61-.29a6.94,6.94,0,0,0-1.33-.88,2,2,0,0,0-.9-.19.84.84,0,0,0-.7.34.67.67,0,0,0-.12.35.3.3,0,0,0,0,.16.84.84,0,0,0,.08.2,4.83,4.83,0,0,0,1,1,3.77,3.77,0,0,1,.66.71,2.87,2.87,0,0,1,.26.49,1.89,1.89,0,0,1,.13.57,2.15,2.15,0,0,1-.84,1.86,2.28,2.28,0,0,1-1.72.41,3.29,3.29,0,0,1-1.29-.5,4.06,4.06,0,0,1-1.26-1.35C409.42,45.21,409.36,45,409.43,44.93Z"/><path class="cls-9" d="M410.91,48c-.15-.1.84-1.88,2.22-4s2.63-3.72,2.79-3.62-.84,1.89-2.23,4S411.06,48.1,410.91,48Z"/><path class="cls-9" d="M410.18,47.25c-.15-.1.74-1.73,2-3.63s2.4-3.37,2.55-3.27-.74,1.73-2,3.63S410.34,47.35,410.18,47.25Z"/><g class="cls-4"><path class="cls-14" d="M397.67,38.66l6.15-9.57h.11c5.44.36,10.76,6.61,14.29,10.75.6.72,1.18,1.39,1.68,2a10,10,0,0,0,9.19,2.88l.31.24L423,55.37l-.13,0a23.26,23.26,0,0,1-16.06-9.77c-2.47-3.7-8.82-6.79-8.89-6.82ZM404,29.5l-5.77,9c1.13.57,6.53,3.4,8.84,6.86a22.88,22.88,0,0,0,15.65,9.58l6-9.74a7.42,7.42,0,0,1-1.11.1,10.7,10.7,0,0,1-8.05-3.23c-.51-.57-1.09-1.24-1.7-2C414.46,36.05,409.25,29.93,404,29.5Z"/></g><path class="cls-9" d="M340.53,51.27s-9.29,7-21.89.86c-7.8-3.84-23.91-9.09-27.68-3.62l-2.58,19s11.57.15,21.87,5.82c10.13,5.57,27.88,2.19,27.88,2.19Z"/><g class="cls-13"><path class="cls-14" d="M311.32,70.82a9.17,9.17,0,0,1-4.89-13c2.44-4.12,9.64-4.35,13.75-1.9a8.67,8.67,0,0,1,3,11.88C320.75,71.92,315.79,72.51,311.32,70.82Z"/></g><path class="cls-9" d="M310.9,67.18c.06-.13.43-.08,1,.06a10.76,10.76,0,0,0,2.41.34,3.91,3.91,0,0,0,1.45-.29,1.88,1.88,0,0,0,1-.91,1.44,1.44,0,0,0-.08-1.28,2.39,2.39,0,0,0-1.45-.83c-.37-.12-.78-.22-1.22-.38a4.57,4.57,0,0,1-1.37-.7,3.26,3.26,0,0,1-.61-.62,2.83,2.83,0,0,1-.41-.79,2.94,2.94,0,0,1,0-1.66,3,3,0,0,1,.77-1.32,3.16,3.16,0,0,1,1.17-.73,4.5,4.5,0,0,1,2.17-.18,5.76,5.76,0,0,1,1.58.5,6.19,6.19,0,0,1,1,.58c.53.37.78.64.72.76s-.43.11-1,0a10.9,10.9,0,0,0-2.41-.36,3.36,3.36,0,0,0-1.4.3,1.28,1.28,0,0,0-.74.93,1,1,0,0,0,0,.56.71.71,0,0,0,.13.22,1.28,1.28,0,0,0,.24.22,7.32,7.32,0,0,0,2,.71,6.52,6.52,0,0,1,1.37.58,3.32,3.32,0,0,1,.68.52,2.85,2.85,0,0,1,.54.7,3.33,3.33,0,0,1,0,3.14,3.49,3.49,0,0,1-2.14,1.67,4.93,4.93,0,0,1-2.13.14A6.47,6.47,0,0,1,311.6,68C311.07,67.59,310.83,67.31,310.9,67.18Z"/><path class="cls-9" d="M314.93,70.53c-.28,0,0-3.17.55-7s1.27-6.88,1.55-6.84,0,3.17-.54,7S315.22,70.57,314.93,70.53Z"/><path class="cls-9" d="M313.44,69.94c-.28,0-.08-2.88.44-6.35s1.19-6.24,1.47-6.19.08,2.88-.45,6.35S313.72,70,313.44,69.94Z"/><g class="cls-4"><path class="cls-14" d="M290.46,66l2.42-17.31.17-.06c7.82-3,19.26,2.31,26.84,5.82,1.31.61,2.54,1.18,3.61,1.64,7.17,3.1,14.34-1.25,14.67-1.88l.59.13-2.3,18.71-.18.06a35.73,35.73,0,0,1-28.69-3.3c-5.83-3.57-16.67-3.8-16.78-3.8Zm3-16.86-2.28,16.26c1.95.07,11.31.55,16.74,3.89a35.14,35.14,0,0,0,28,3.3l2.15-17.47a14.2,14.2,0,0,1-1.48.86c-1.63.8-7.41,3.22-13.31.67-1.08-.46-2.32-1-3.63-1.64C312.21,51.57,301,46.38,293.44,49.15Z"/></g><path class="cls-9" d="M330.87,180.89s-9.24-2-12.07-13c-1.75-6.83-7-19.52-12.36-19l-13.09,8.44a42.43,42.43,0,0,1,7.94,16.54c1.91,9.18,13.35,18.34,13.35,18.34Z"/><g class="cls-13"><path class="cls-14" d="M303.42,173.2a7.44,7.44,0,0,1,5.43-9.86c3.82-.66,7.76,3.65,8.42,7.47a7,7,0,0,1-5.73,8.12C307.71,179.59,304.74,176.85,303.42,173.2Z"/></g><path class="cls-9" d="M305.44,171c.11,0,.28.23.51.67a8.89,8.89,0,0,0,1.06,1.67,3.25,3.25,0,0,0,.94.73,1.48,1.48,0,0,0,1.09.14,1.17,1.17,0,0,0,.75-.72,2,2,0,0,0-.25-1.33c-.13-.29-.28-.6-.42-1a4.21,4.21,0,0,1-.29-1.21,2.76,2.76,0,0,1,.06-.7,2.32,2.32,0,0,1,.28-.67,2.36,2.36,0,0,1,1-.89,2.42,2.42,0,0,1,1.23-.22,2.5,2.5,0,0,1,1.06.33,3.61,3.61,0,0,1,1.25,1.24,5.23,5.23,0,0,1,.53,1.24,5.08,5.08,0,0,1,.18.94c.06.52,0,.82-.09.85s-.29-.21-.53-.66a8.66,8.66,0,0,0-1.05-1.67,2.51,2.51,0,0,0-.92-.7,1,1,0,0,0-1,0,.89.89,0,0,0-.32.32.76.76,0,0,0-.06.2.75.75,0,0,0,0,.26,5.94,5.94,0,0,0,.6,1.6,4.57,4.57,0,0,1,.37,1.15,3.13,3.13,0,0,1,0,.69,2.37,2.37,0,0,1-.15.7,2.67,2.67,0,0,1-1.92,1.67,2.76,2.76,0,0,1-2.15-.43,3.94,3.94,0,0,1-1.21-1.24,5.2,5.2,0,0,1-.72-2.18C305.28,171.35,305.33,171.05,305.44,171Z"/><path class="cls-9" d="M305.51,175.27c-.12-.19,1.93-1.69,4.59-3.34s4.91-2.84,5-2.65-1.93,1.7-4.59,3.35S305.63,175.47,305.51,175.27Z"/><path class="cls-9" d="M305.08,174.05c-.13-.2,1.73-1.58,4.14-3.08s4.47-2.56,4.6-2.36-1.74,1.57-4.15,3.07S305.2,174.24,305.08,174.05Z"/><g class="cls-4"><path class="cls-14" d="M295.39,157.81l11.94-7.63.13.07c6,3.24,8.73,13.09,10.56,19.61.31,1.12.61,2.18.89,3.09,1.87,6.05,8.33,8.17,8.9,8l.22.44-12.74,8.45-.13-.09a29,29,0,0,1-13.09-19.42c-.87-5.47-6.44-12.27-6.5-12.34Zm12-7.05-11.22,7.17c1,1.23,5.62,7.25,6.43,12.36a28.49,28.49,0,0,0,12.72,19l11.9-7.89a8.2,8.2,0,0,1-1.31-.46c-1.35-.58-5.89-2.87-7.43-7.84-.28-.92-.58-2-.9-3.11C315.75,163.6,313,154,307.35,150.76Z"/></g><path class="cls-9" d="M243.22,108.22s-7.35,1.39-12.82-5.77c-3.38-4.43-11.13-12.06-14.86-10l-6.93,10.2a33.59,33.59,0,0,1,10.9,9.6c4.22,6.1,15.38,9.24,15.38,9.24Z"/><g class="cls-13"><path class="cls-14" d="M220.84,111.09a5.89,5.89,0,0,1,.91-8.86c2.59-1.66,6.78.26,8.45,2.84a5.57,5.57,0,0,1-1.67,7.69C226,114.42,222.93,113.35,220.84,111.09Z"/></g><path class="cls-9" d="M221.64,108.88c.08,0,.28.08.58.33a7.44,7.44,0,0,0,1.29.89,2.32,2.32,0,0,0,.91.24,1.16,1.16,0,0,0,.83-.23.9.9,0,0,0,.33-.76,1.56,1.56,0,0,0-.59-.89c-.19-.17-.39-.35-.6-.57a3.07,3.07,0,0,1-.59-.79,2.52,2.52,0,0,1-.17-.53,1.88,1.88,0,0,1,0-.58,2,2,0,0,1,.46-1,2,2,0,0,1,.82-.54,2.1,2.1,0,0,1,.88-.08,3,3,0,0,1,1.3.52,3.84,3.84,0,0,1,.76.74,4.18,4.18,0,0,1,.43.63c.2.36.26.59.19.64s-.27-.06-.58-.31a7.65,7.65,0,0,0-1.29-.9,2,2,0,0,0-.89-.22.79.79,0,0,0-.69.32.55.55,0,0,0-.13.33.49.49,0,0,0,0,.17,1,1,0,0,0,.08.19,4.64,4.64,0,0,0,.93,1,4.08,4.08,0,0,1,.62.72,2.23,2.23,0,0,1,.24.49,1.8,1.8,0,0,1,.11.56,2.13,2.13,0,0,1-.88,1.81,2.21,2.21,0,0,1-1.71.35,3.29,3.29,0,0,1-1.26-.53,4.32,4.32,0,0,1-1.2-1.36C221.62,109.17,221.57,108.94,221.64,108.88Z"/><path class="cls-9" d="M223,112c-.15-.11.88-1.83,2.31-3.86s2.7-3.59,2.85-3.48-.89,1.83-2.31,3.86S223.15,112.06,223,112Z"/><path class="cls-9" d="M222.31,111.2c-.15-.11.78-1.69,2.08-3.52s2.46-3.25,2.61-3.14-.78,1.68-2.07,3.52S222.46,111.3,222.31,111.2Z"/><g class="cls-4"><path class="cls-14" d="M210.24,102.36l6.34-9.25h.12c5.35.52,10.4,6.84,13.75,11,.58.72,1.12,1.4,1.6,2a9.85,9.85,0,0,0,9,3.12l.3.25-6.68,10.09-.12,0A22.94,22.94,0,0,1,219,109.45c-2.32-3.72-8.49-7-8.55-7Zm6.54-8.83-6,8.69c1.09.59,6.33,3.55,8.5,7a22.54,22.54,0,0,0,15.13,9.91l6.24-9.42a7.45,7.45,0,0,1-1.09.07,10.61,10.61,0,0,1-7.85-3.42c-.48-.58-1-1.26-1.61-2C226.86,100.29,221.92,94.11,216.78,93.53Z"/></g><path class="cls-9" d="M58.86,244.06s-7.35,1.4-12.82-5.77c-3.38-4.43-11.13-12.06-14.86-10l-6.93,10.2a33.59,33.59,0,0,1,10.9,9.6c4.22,6.1,15.38,9.24,15.38,9.24Z"/><g class="cls-13"><path class="cls-14" d="M36.49,246.93a5.88,5.88,0,0,1,.91-8.86c2.58-1.66,6.78.26,8.44,2.85a5.56,5.56,0,0,1-1.67,7.68C41.59,250.26,38.57,249.19,36.49,246.93Z"/></g><path class="cls-9" d="M37.29,244.72c.07-.05.27.08.57.33a7.44,7.44,0,0,0,1.29.89,2.32,2.32,0,0,0,.92.24,1.19,1.19,0,0,0,.83-.23.92.92,0,0,0,.32-.76,1.51,1.51,0,0,0-.59-.89c-.18-.17-.39-.35-.6-.57a3.05,3.05,0,0,1-.58-.79,2,2,0,0,1-.17-.53,1.56,1.56,0,0,1,0-.57,1.83,1.83,0,0,1,.46-1,2,2,0,0,1,.82-.54,2,2,0,0,1,.87-.08,3,3,0,0,1,1.3.52,3.66,3.66,0,0,1,.77.74,4,4,0,0,1,.42.63c.2.36.27.59.2.64s-.28-.06-.59-.31a7.52,7.52,0,0,0-1.28-.9,2.05,2.05,0,0,0-.89-.22.81.81,0,0,0-.7.32.62.62,0,0,0-.13.33.33.33,0,0,0,0,.17.56.56,0,0,0,.07.19,4.64,4.64,0,0,0,.93,1,4.11,4.11,0,0,1,.63.72,3.71,3.71,0,0,1,.24.49,1.78,1.78,0,0,1,.1.56,2.09,2.09,0,0,1-.88,1.81,2.19,2.19,0,0,1-1.7.35,3.16,3.16,0,0,1-1.26-.53,4.07,4.07,0,0,1-1.2-1.36C37.27,245,37.21,244.78,37.29,244.72Z"/><path class="cls-9" d="M38.65,247.8c-.15-.1.88-1.83,2.31-3.86s2.7-3.58,2.85-3.48-.88,1.83-2.31,3.86S38.8,247.9,38.65,247.8Z"/><path class="cls-9" d="M38,247c-.15-.11.77-1.69,2.07-3.52s2.47-3.25,2.61-3.14-.77,1.68-2.07,3.52S38.11,247.14,38,247Z"/><g class="cls-4"><path class="cls-14" d="M25.88,238.2,32.23,229h.11c5.35.52,10.41,6.84,13.75,11,.58.72,1.12,1.4,1.61,2a9.83,9.83,0,0,0,9,3.12l.31.25-6.68,10.09-.13,0a22.94,22.94,0,0,1-15.53-10.11c-2.32-3.72-8.49-6.95-8.55-7Zm6.54-8.83-6,8.69c1.1.59,6.33,3.55,8.5,7A22.54,22.54,0,0,0,50.1,255l6.23-9.42a7.38,7.38,0,0,1-1.09.07,10.55,10.55,0,0,1-7.84-3.42c-.49-.58-1-1.26-1.61-2C42.51,236.13,37.56,230,32.42,229.37Z"/></g><path class="cls-9" d="M166.64,149.81s-2.73,8.91-13.79,10.78c-6.85,1.15-19.75,5.26-19.64,10.57l7.21,13.55a42,42,0,0,1,16.9-6.44c9.17-1.11,19.1-11.58,19.1-11.58Z"/><g class="cls-13"><path class="cls-14" d="M156.82,176.13a7.33,7.33,0,0,1-9.23-6.15c-.34-3.81,4.22-7.31,8-7.65a6.93,6.93,0,0,1,7.5,6.3C163.45,172.44,160.51,175.14,156.82,176.13Z"/></g><path class="cls-9" d="M154.85,174c0-.12.24-.26.7-.45a8.48,8.48,0,0,0,1.72-.9,3,3,0,0,0,.8-.87,1.43,1.43,0,0,0,.23-1.05,1.17,1.17,0,0,0-.65-.8,1.88,1.88,0,0,0-1.33.14c-.29.1-.61.22-1,.33a4.05,4.05,0,0,1-1.21.18,2.62,2.62,0,0,1-.68-.12,2.14,2.14,0,0,1-.64-.32,2.3,2.3,0,0,1-.79-1.06,2.33,2.33,0,0,1-.12-1.22,2.61,2.61,0,0,1,.42-1,3.49,3.49,0,0,1,1.32-1.12,4.33,4.33,0,0,1,1.26-.42,5,5,0,0,1,.94-.1c.51,0,.8.05.82.16s-.23.26-.68.46a9,9,0,0,0-1.74.89,2.68,2.68,0,0,0-.76.85,1,1,0,0,0-.05,1,.88.88,0,0,0,.29.34l.19.08a1,1,0,0,0,.26,0,6.28,6.28,0,0,0,1.61-.46,4.9,4.9,0,0,1,1.17-.27,3,3,0,0,1,.67,0,2.23,2.23,0,0,1,.68.2,2.66,2.66,0,0,1,1.49,2,2.78,2.78,0,0,1-.61,2.08,3.85,3.85,0,0,1-1.31,1.09,5.35,5.35,0,0,1-2.2.53C155.16,174.15,154.87,174.08,154.85,174Z"/><path class="cls-9" d="M159,174.25c-.2.1-1.5-2-2.91-4.78s-2.38-5.06-2.18-5.16,1.51,2,2.91,4.78S159.23,174.15,159,174.25Z"/><path class="cls-9" d="M157.79,174.57c-.2.11-1.4-1.83-2.67-4.33s-2.15-4.6-2-4.7,1.4,1.84,2.68,4.33S158,174.47,157.79,174.57Z"/><g class="cls-4"><path class="cls-14" d="M141.05,182.74l-6.51-12.35.08-.12c3.67-5.59,13.58-7.49,20.13-8.75,1.13-.22,2.19-.42,3.1-.62,6.1-1.34,8.72-7.5,8.64-8.07l.45-.19,7.24,13.21-.09.13a28.6,28.6,0,0,1-20.16,11.24c-5.44.4-12.58,5.31-12.65,5.36Zm-5.94-12.32L141.23,182c1.29-.87,7.58-4.92,12.67-5.3a28,28,0,0,0,19.7-10.92l-6.76-12.33a9.58,9.58,0,0,1-.56,1.24c-.68,1.29-3.3,5.56-8.32,6.65-.92.2-2,.41-3.12.63C148.42,163.23,138.73,165.09,135.11,170.42Z"/></g><path class="cls-9" d="M106.67,124.62s-9.15,7.22-21.87,1.26c-7.87-3.69-24.06-8.65-27.74-3.11l-2.23,19.08s11.57-.06,22,5.41C87,152.65,104.72,149,104.72,149Z"/><g class="cls-13"><path class="cls-14" d="M77.82,144.7a9.17,9.17,0,0,1-5.12-12.9c2.37-4.16,9.56-4.52,13.71-2.15a8.67,8.67,0,0,1,3.23,11.82C87.27,145.63,82.33,146.31,77.82,144.7Z"/></g><path class="cls-9" d="M77.34,141.08c.06-.14.43-.09,1,0a10.66,10.66,0,0,0,2.42.3,3.9,3.9,0,0,0,1.44-.32,1.81,1.81,0,0,0,1-.92,1.44,1.44,0,0,0-.1-1.28,2.4,2.4,0,0,0-1.46-.81c-.37-.11-.79-.21-1.23-.35a4.65,4.65,0,0,1-1.38-.68,3,3,0,0,1-.62-.61,2.82,2.82,0,0,1-.43-.78,3,3,0,0,1-.06-1.66,3.11,3.11,0,0,1,.75-1.34,3,3,0,0,1,1.15-.74A4.44,4.44,0,0,1,82,131.7a6,6,0,0,1,1.59.46,6.84,6.84,0,0,1,1,.57c.54.36.79.62.73.75s-.42.11-1,0a12.06,12.06,0,0,0-2.42-.32,3.47,3.47,0,0,0-1.4.33,1.28,1.28,0,0,0-.72,1,.88.88,0,0,0,.06.56.74.74,0,0,0,.14.22,1.29,1.29,0,0,0,.24.21,7.58,7.58,0,0,0,2,.68,5.75,5.75,0,0,1,1.38.55,4,4,0,0,1,.69.5,3.27,3.27,0,0,1,.55.69,3.31,3.31,0,0,1,.09,3.14,3.49,3.49,0,0,1-2.11,1.71,4.79,4.79,0,0,1-2.12.18,6.44,6.44,0,0,1-2.64-1C77.52,141.48,77.28,141.2,77.34,141.08Z"/><path class="cls-9" d="M81.44,144.34c-.29,0-.1-3.17.41-7s1.15-6.9,1.43-6.87.1,3.17-.41,7S81.72,144.38,81.44,144.34Z"/><path class="cls-9" d="M79.93,143.79c-.28,0-.14-2.89.33-6.36s1.07-6.26,1.35-6.22.13,2.88-.33,6.36S80.21,143.83,79.93,143.79Z"/><g class="cls-4"><path class="cls-14" d="M56.89,140.28,59,122.93l.16-.07c7.76-3.14,19.31,2,26.95,5.33,1.31.58,2.56,1.13,3.64,1.57,7.22,3,14.31-1.51,14.63-2.15l.59.12-2,18.76-.18.06a35.79,35.79,0,0,1-28.75-2.78c-5.88-3.46-16.73-3.49-16.84-3.49Zm2.66-16.92-2,16.31c1.94,0,11.31.34,16.8,3.57a35.17,35.17,0,0,0,28.06,2.8l1.83-17.51a12.71,12.71,0,0,1-1.47.88c-1.61.83-7.35,3.36-13.3.92-1.08-.45-2.33-1-3.65-1.58C78.36,125.44,67.07,120.46,59.55,123.36Z"/></g><path class="cls-9" d="M180.06,2s1.28,10.2-9,17.09c-6.38,4.26-17.5,14.24-15,19.53L169.45,49a46.3,46.3,0,0,1,14.1-14.13c8.73-5.27,14-20.31,14-20.31Z"/><g class="cls-13"><path class="cls-14" d="M182.08,33A8.09,8.09,0,0,1,170,31c-2.06-3.68.95-9.28,4.63-11.34A7.66,7.66,0,0,1,185,22.58C187.09,26.26,185.35,30.31,182.08,33Z"/></g><path class="cls-9" d="M179.12,31.69c-.07-.11.13-.37.5-.76A9.84,9.84,0,0,0,181,29.24a3.49,3.49,0,0,0,.41-1.24,1.63,1.63,0,0,0-.25-1.16,1.3,1.3,0,0,0-1-.51,2.19,2.19,0,0,0-1.28.74c-.25.23-.51.5-.82.77a4.32,4.32,0,0,1-1.14.74,3.22,3.22,0,0,1-.74.19,2.32,2.32,0,0,1-.79,0,2.62,2.62,0,0,1-2-1.88,3,3,0,0,1,0-1.22,4,4,0,0,1,.82-1.73,5.34,5.34,0,0,1,1.08-1,6.25,6.25,0,0,1,.9-.53c.52-.24.83-.31.9-.21s-.11.37-.48.78a10,10,0,0,0-1.34,1.68,2.91,2.91,0,0,0-.38,1.2,1.1,1.1,0,0,0,.38,1,.81.81,0,0,0,.45.21.59.59,0,0,0,.23,0l.26-.09a6.12,6.12,0,0,0,1.42-1.19,5.57,5.57,0,0,1,1-.8,3.44,3.44,0,0,1,.69-.28,2.63,2.63,0,0,1,.78-.11,2.92,2.92,0,0,1,2.41,1.36,3.09,3.09,0,0,1,.33,2.38A4.2,4.2,0,0,1,182,30a5.81,5.81,0,0,1-2,1.53C179.51,31.74,179.19,31.79,179.12,31.69Z"/><path class="cls-9" d="M183.46,30.09c-.16.19-2.44-1.37-5.1-3.5s-4.69-4-4.53-4.21,2.44,1.37,5.1,3.5S183.61,29.89,183.46,30.09Z"/><path class="cls-9" d="M182.35,31c-.15.2-2.24-1.21-4.65-3.14s-4.24-3.66-4.08-3.86,2.24,1.21,4.65,3.15S182.51,30.77,182.35,31Z"/><g class="cls-4"><path class="cls-14" d="M169.2,46.77l-12.14-9.49,0-.15c1.17-7.29,10.27-13.69,16.3-17.92,1-.73,2-1.42,2.85-2,5.53-4.11,5.37-11.5,5-12l.36-.39,13.27,10,0,.17a31.48,31.48,0,0,1-15.19,20.44c-5.3,2.87-10.26,11-10.31,11.13Zm-11.56-9.71L169.06,46c.91-1.45,5.41-8.38,10.35-11.06A31,31,0,0,0,194.3,15L181.91,5.64a9.16,9.16,0,0,1,0,1.51c-.1,1.6-.81,7.08-5.36,10.46-.83.62-1.82,1.31-2.86,2C167.78,23.8,158.88,30.05,157.64,37.06Z"/></g></g><g id="Money"><rect class="cls-6" x="355.55" y="370.64" width="52.66" height="11.39"/><polygon class="cls-2" points="376.46 370.64 377.33 382.04 384.76 382.04 385.15 370.64 376.46 370.64"/><rect class="cls-12" x="342.78" y="370.64" width="52.66" height="11.39"/><path class="cls-6" d="M395.27,372.43c0,.14-11.71.26-26.16.26s-26.17-.12-26.17-.26,11.71-.26,26.17-.26S395.27,372.29,395.27,372.43Z"/><path class="cls-6" d="M395.25,375c0,.14-11.71.26-26.16.26s-26.17-.12-26.17-.26,11.72-.26,26.17-.26S395.25,374.89,395.25,375Z"/><path class="cls-6" d="M395.25,377.64c0,.15-11.71.26-26.16.26s-26.17-.11-26.17-.26,11.72-.26,26.17-.26S395.25,377.5,395.25,377.64Z"/><path class="cls-6" d="M395.25,380.25c0,.14-11.71.26-26.16.26s-26.17-.12-26.17-.26,11.72-.26,26.17-.26S395.25,380.11,395.25,380.25Z"/><polygon class="cls-2" points="363.68 370.64 364.55 382.04 371.99 382.04 372.37 370.64 363.68 370.64"/><rect class="cls-6" x="361.94" y="359.38" width="52.66" height="11.39"/><polygon class="cls-2" points="382.85 359.38 383.72 370.77 391.15 370.77 391.54 359.38 382.85 359.38"/><rect class="cls-12" x="349.17" y="359.38" width="52.66" height="11.39"/><path class="cls-6" d="M401.66,361.16c0,.15-11.72.26-26.16.26s-26.17-.11-26.17-.26,11.71-.26,26.17-.26S401.66,361,401.66,361.16Z"/><path class="cls-6" d="M401.64,363.77c0,.14-11.71.26-26.16.26s-26.17-.12-26.17-.26,11.72-.26,26.17-.26S401.64,363.63,401.64,363.77Z"/><path class="cls-6" d="M401.64,366.38c0,.14-11.71.26-26.16.26s-26.17-.12-26.17-.26,11.72-.26,26.17-.26S401.64,366.23,401.64,366.38Z"/><path class="cls-6" d="M401.64,369c0,.15-11.71.26-26.16.26s-26.17-.11-26.17-.26,11.72-.26,26.17-.26S401.64,368.84,401.64,369Z"/><polygon class="cls-2" points="370.07 359.38 370.94 370.77 378.38 370.77 378.76 359.38 370.07 359.38"/><rect class="cls-6" x="358.37" y="393.3" width="52.66" height="11.39"/><polygon class="cls-2" points="379.27 393.3 380.14 404.69 387.58 404.69 387.96 393.3 379.27 393.3"/><rect class="cls-12" x="345.59" y="393.3" width="52.66" height="11.39"/><path class="cls-6" d="M398.08,395.09c0,.14-11.71.26-26.16.26s-26.17-.12-26.17-.26,11.72-.26,26.17-.26S398.08,394.94,398.08,395.09Z"/><path class="cls-6" d="M398.07,397.69c0,.15-11.72.26-26.17.26s-26.16-.11-26.16-.26,11.71-.26,26.16-.26S398.07,397.55,398.07,397.69Z"/><path class="cls-6" d="M398.07,400.3c0,.14-11.72.26-26.17.26s-26.16-.12-26.16-.26,11.71-.26,26.16-.26S398.07,400.16,398.07,400.3Z"/><path class="cls-6" d="M398.07,402.91c0,.14-11.72.26-26.17.26s-26.16-.12-26.16-.26,11.71-.26,26.16-.26S398.07,402.76,398.07,402.91Z"/><polygon class="cls-2" points="366.5 393.3 367.37 404.69 374.8 404.69 375.19 393.3 366.5 393.3"/><rect class="cls-6" x="364.76" y="382.03" width="52.66" height="11.39"/><polygon class="cls-2" points="385.66 382.04 386.53 393.43 393.96 393.43 394.35 382.04 385.66 382.04"/><rect class="cls-12" x="351.98" y="382.03" width="52.66" height="11.39"/><path class="cls-6" d="M404.47,383.82c0,.15-11.71.26-26.16.26s-26.17-.11-26.17-.26,11.72-.26,26.17-.26S404.47,383.68,404.47,383.82Z"/><path class="cls-6" d="M404.45,386.43c0,.14-11.71.26-26.16.26s-26.16-.12-26.16-.26,11.71-.26,26.16-.26S404.45,386.28,404.45,386.43Z"/><path class="cls-6" d="M404.45,389c0,.15-11.71.26-26.16.26s-26.16-.11-26.16-.26,11.71-.26,26.16-.26S404.45,388.89,404.45,389Z"/><path class="cls-6" d="M404.45,391.64c0,.14-11.71.26-26.16.26s-26.16-.12-26.16-.26,11.71-.26,26.16-.26S404.45,391.5,404.45,391.64Z"/><polygon class="cls-2" points="372.88 382.04 373.75 393.43 381.19 393.43 381.57 382.04 372.88 382.04"/><rect class="cls-9" x="322.94" y="381.91" width="52.66" height="11.39"/><rect class="cls-15" x="322.94" y="381.91" width="52.66" height="11.39"/><polygon class="cls-2" points="343.85 381.91 344.72 393.31 352.15 393.31 352.54 381.91 343.85 381.91"/><rect class="cls-9" x="317.16" y="393.3" width="52.66" height="11.39"/><rect class="cls-15" x="317.16" y="393.3" width="52.66" height="11.39"/><polygon class="cls-2" points="338.07 393.3 338.94 404.69 346.37 404.69 346.75 393.3 338.07 393.3"/><rect class="cls-9" x="304.38" y="393.3" width="52.66" height="11.39"/><g class="cls-11"><path d="M356.88,395.09c0,.14-11.72.26-26.17.26s-26.16-.12-26.16-.26,11.71-.26,26.16-.26S356.88,394.94,356.88,395.09Z"/></g><g class="cls-11"><path d="M356.86,397.69c0,.15-11.72.26-26.16.26s-26.17-.11-26.17-.26,11.71-.26,26.17-.26S356.86,397.55,356.86,397.69Z"/></g><g class="cls-11"><path d="M356.86,400.3c0,.14-11.72.26-26.16.26s-26.17-.12-26.17-.26,11.71-.26,26.17-.26S356.86,400.16,356.86,400.3Z"/></g><g class="cls-11"><path d="M356.86,402.91c0,.14-11.72.26-26.16.26s-26.17-.12-26.17-.26,11.71-.26,26.17-.26S356.86,402.76,356.86,402.91Z"/></g><polygon class="cls-2" points="325.29 393.3 326.16 404.69 333.59 404.69 333.98 393.3 325.29 393.3"/><rect class="cls-9" x="311.98" y="381.91" width="52.66" height="11.39"/><g class="cls-11"><path d="M364.48,383.7c0,.14-11.72.26-26.16.26s-26.17-.12-26.17-.26,11.71-.26,26.17-.26S364.48,383.55,364.48,383.7Z"/></g><g class="cls-11"><path d="M364.46,386.31c0,.14-11.71.26-26.16.26s-26.17-.12-26.17-.26,11.72-.27,26.17-.27S364.46,386.16,364.46,386.31Z"/></g><g class="cls-11"><path d="M364.46,388.91c0,.15-11.71.26-26.16.26s-26.17-.11-26.17-.26,11.72-.26,26.17-.26S364.46,388.77,364.46,388.91Z"/></g><g class="cls-11"><path d="M364.46,391.52c0,.14-11.71.26-26.16.26s-26.17-.12-26.17-.26,11.72-.26,26.17-.26S364.46,391.37,364.46,391.52Z"/></g><polygon class="cls-2" points="332.89 381.91 333.76 393.31 341.19 393.31 341.58 381.91 332.89 381.91"/><rect class="cls-6" x="73.63" y="393.3" width="52.66" height="11.39"/><polygon class="cls-2" points="94.53 393.3 95.4 404.69 102.83 404.69 103.22 393.3 94.53 393.3"/><rect class="cls-12" x="60.85" y="393.3" width="52.66" height="11.39"/><path class="cls-6" d="M113.34,395.09c0,.14-11.71.26-26.16.26S61,395.23,61,395.09s11.72-.26,26.17-.26S113.34,394.94,113.34,395.09Z"/><path class="cls-6" d="M113.32,397.69c0,.15-11.71.26-26.16.26S61,397.84,61,397.69s11.71-.26,26.16-.26S113.32,397.55,113.32,397.69Z"/><path class="cls-6" d="M113.32,400.3c0,.14-11.71.26-26.16.26S61,400.44,61,400.3,72.71,400,87.16,400,113.32,400.16,113.32,400.3Z"/><path class="cls-6" d="M113.32,402.91c0,.14-11.71.26-26.16.26S61,403.05,61,402.91s11.71-.26,26.16-.26S113.32,402.76,113.32,402.91Z"/><polygon class="cls-3" points="81.75 393.3 82.62 404.69 90.06 404.69 90.44 393.3 81.75 393.3"/><rect class="cls-6" x="67.22" y="382.03" width="52.66" height="11.39"/><polygon class="cls-2" points="88.13 382.04 89 393.43 96.43 393.43 96.81 382.04 88.13 382.04"/><rect class="cls-12" x="54.44" y="382.03" width="52.66" height="11.39"/><path class="cls-6" d="M106.94,383.82c0,.15-11.72.26-26.17.26s-26.16-.11-26.16-.26,11.71-.26,26.16-.26S106.94,383.68,106.94,383.82Z"/><path class="cls-6" d="M106.92,386.43c0,.14-11.72.26-26.16.26s-26.17-.12-26.17-.26,11.71-.26,26.17-.26S106.92,386.28,106.92,386.43Z"/><path class="cls-6" d="M106.92,389c0,.15-11.72.26-26.16.26s-26.17-.11-26.17-.26,11.71-.26,26.17-.26S106.92,388.89,106.92,389Z"/><path class="cls-6" d="M106.92,391.64c0,.14-11.72.26-26.16.26s-26.17-.12-26.17-.26,11.71-.26,26.17-.26S106.92,391.5,106.92,391.64Z"/><polygon class="cls-3" points="75.35 382.04 76.22 393.43 83.65 393.43 84.04 382.04 75.35 382.04"/></g></g></svg>